G04*
G04 #@! TF.GenerationSoftware,Altium Limited,Altium Designer,20.1.12 (249)*
G04*
G04 Layer_Color=128*
%FSLAX44Y44*%
%MOMM*%
G71*
G04*
G04 #@! TF.SameCoordinates,5E9590BE-8DD8-43A8-91C0-4717CA043C4B*
G04*
G04*
G04 #@! TF.FilePolarity,Positive*
G04*
G01*
G75*
%ADD10C,0.1000*%
%ADD12R,0.5000X0.5000*%
%ADD17R,0.5500X0.5500*%
%ADD18R,0.5000X0.5000*%
%ADD21R,0.9500X1.3500*%
%ADD22R,1.3500X0.9500*%
%ADD23R,0.5500X0.5500*%
%ADD24R,0.9144X0.9144*%
%ADD25R,1.2700X0.9144*%
%ADD26R,1.0000X1.8000*%
%ADD27R,0.7500X0.9000*%
%ADD28R,1.0500X0.5500*%
D10*
X260000Y740000D02*
Y933040D01*
X696880Y740000D02*
Y933040D01*
X260000Y740000D02*
X696880D01*
X260000Y933040D02*
X696880D01*
D12*
X437546Y858808D02*
D03*
Y850808D02*
D03*
Y842552D02*
D03*
Y834552D02*
D03*
X428402Y828582D02*
D03*
Y820582D02*
D03*
X503586Y795816D02*
D03*
Y787816D02*
D03*
X535440Y832270D02*
D03*
Y824270D02*
D03*
X670440Y829520D02*
D03*
Y821520D02*
D03*
D17*
X463190Y867520D02*
D03*
X471190D02*
D03*
X352646Y780386D02*
D03*
X344646D02*
D03*
X387190Y837282D02*
D03*
X379190D02*
D03*
X384396Y854046D02*
D03*
X376396D02*
D03*
X400398Y827884D02*
D03*
X392398D02*
D03*
X449928Y786228D02*
D03*
X441928D02*
D03*
X489806Y787244D02*
D03*
X481806D02*
D03*
X520032Y802738D02*
D03*
X512032D02*
D03*
D18*
X387190Y845664D02*
D03*
X379190D02*
D03*
X419956Y813152D02*
D03*
X411956D02*
D03*
X436212Y811882D02*
D03*
X428212D02*
D03*
D21*
X393730Y814676D02*
D03*
X377730D02*
D03*
X448594Y885034D02*
D03*
X432594D02*
D03*
X577440Y815770D02*
D03*
X561440D02*
D03*
X566690Y863270D02*
D03*
X550690D02*
D03*
D22*
X357028Y837916D02*
D03*
Y821916D02*
D03*
X581440Y849270D02*
D03*
Y833270D02*
D03*
D23*
X359568Y865158D02*
D03*
Y857158D02*
D03*
X353726Y808008D02*
D03*
Y800008D02*
D03*
X362108Y808008D02*
D03*
Y800008D02*
D03*
X535440Y850020D02*
D03*
Y842020D02*
D03*
D24*
X426116Y858745D02*
D03*
Y839695D02*
D03*
D25*
X405796Y849093D02*
D03*
D26*
X398690Y785240D02*
D03*
X373690D02*
D03*
D27*
X391714Y864460D02*
D03*
X377714D02*
D03*
D28*
X633440Y838520D02*
D03*
Y825520D02*
D03*
X617940Y832020D02*
D03*
M02*
