M48
;Layer_Color=9474304
;FILE_FORMAT=4:4
METRIC,LZ
T8F00S00C5.0800
%
G90
G05
T08
G00X00701928Y00715107
M15
G01X00706775Y00716607
G01X00711227Y0071904
G01X00715107Y0072231
G01X00718259Y00726285
G01X00720558Y00730808
G01X00721913Y00735697
G01X0072228Y0074
G01X0072228Y0093304
G01X00721773Y00938088
G01X00720273Y00942935
G01X0071784Y00947387
G01X0071457Y00951267
G01X00710595Y00954419
G01X00706072Y00956718
G01X00701183Y00958073
G01X0069688Y0095844
G01X0026Y0095844
G01X00254952Y00957933
G01X00250105Y00956433
G01X00245653Y00954
G01X00241773Y0095073
G01X00238621Y00946755
G01X00236322Y00942232
G01X00234967Y00937342
G01X002346Y0093304
G01X002346Y0074
G01X00235107Y00734952
G01X00236607Y00730105
G01X0023904Y00725653
G01X0024231Y00721773
G01X00246285Y00718621
G01X00250808Y00716322
G01X00255697Y00714967
G01X0026Y007146
G01X0069688Y007146
G01X00701928Y00715107
M16
M17
M30
