M48
;Layer_Color=9474304
;FILE_FORMAT=4:4
METRIC,LZ
;TYPE=PLATED
T1F00S00C0.2032
T2F00S00C0.7000
T4F00S00C1.0000
%
T01
X004124Y00791816
X00481742Y0078027
X0062703Y00781656
X0063465Y00786736
X00637941Y00775769
X00651729Y00787526
X00665384Y0078477
X00674139Y00777719
X00360468Y0078027
X0035519Y00792638
X00344646Y00773592
X0032731Y00788514
X00321214
X00311054
X00304958Y00788768
X0036922Y00801214
X00368966Y00808834
X0036668Y0081493
X0037167Y0083017
X00378782Y00829916
X00386492Y00827884
X00393604Y00837282
X00390048Y00854046
X0039208Y00872842
X0037684Y00873096
X00366934Y00864968
X00366782Y00857704
X00367442Y00846426
X00371978Y0083877
X00345366Y0085377
X00356012Y00890368
X00365156Y00890876
X0038119Y00800782
X0039119
X00403256Y008035
X0040224Y00814676
X0041294Y00807532
X00421988Y00820582
X00420274Y00829408
X0040732Y00829154
X00400398Y00834044
X00437546Y00829154
X00440086Y00822042
X00453548Y0082001
X00453294Y00810358
X004505Y00794102
X0044034
X00442372Y00801468
X00436212Y00806484
X00446182Y00832456
X00445738Y00850808
X00454818Y0084922
X00452024Y00865666
Y00873858
X00444658
X0043145Y00875128
X00424846Y0087843
X00418496Y00881986
X00414686Y00876592
X00421544Y00871572
X00477924Y0086877
X0047717Y0087589
X004886Y00872588
Y00879446
Y00864714
X0050384Y00858872
X00518826Y0086077
X0052416Y00853284
X0052769Y0084027
X00526446Y00833726
X00514254Y00834996
X0050638Y00821026
X00503586Y00805532
X00519842Y00809342
X00530764Y00801468
X00538978Y00816308
X0054794Y0082802
X0055944
X0057044
Y0084002
X0055944
X0054794
Y0085202
X0055944
X0057044
X0057969Y0086177
Y0086877
X0058694
Y0086177
X0060344Y0084752
X0061144Y0082577
X0061844Y0082327
X0058719Y0081727
Y0081052
X0057419Y0080352
X00562514Y00802444
X00563022Y00795626
X00481742Y00794864
X00483774Y00824074
X00479456Y00829916
X0047844Y00847442
X00463708Y00893416
X00470058Y00899766
X00523934Y00898242
X00518826Y00884526
X00512222
X00527716Y00881986
Y00874874
X0053394Y0086802
X0054044
Y0086077
X0053394
X0053432Y00888336
X0064694Y0089002
X0063509Y0084677
X0066119Y0083702
X0066264Y0082832
X0066181Y0081814
T02
X00317954Y00834362
Y00850362
X00329954Y00842362
Y00826362
Y00858362
T04
X0040224Y0076032
X0042764
X0045304
X0047844
X0050384
X0052924
X0055464
X0058004
X0060544
X0063084
X0065624
X0037684
X0035144
X0032604
X0030064
Y0091272
X0032604
X0035144
X0037684
X0040224
X0042764
X0045304
X0047844
X0050384
X0052924
X0055464
X0058004
X0060544
X0063084
X0065624
M30
