G04*
G04 #@! TF.GenerationSoftware,Altium Limited,Altium Designer,20.1.12 (249)*
G04*
G04 Layer_Color=16777215*
%FSLAX44Y44*%
%MOMM*%
G71*
G04*
G04 #@! TF.SameCoordinates,6BC81075-F8A6-44B3-9B4B-18916E9C74BF*
G04*
G04*
G04 #@! TF.FilePolarity,Positive*
G04*
G01*
G75*
%ADD10C,0.2500*%
%ADD11C,0.6000*%
%ADD12C,0.1000*%
%ADD13C,0.1524*%
D10*
X527098Y805768D02*
G03*
X527098Y805768I-1250J0D01*
G01*
X534841Y865872D02*
G03*
X534841Y865872I-1250J0D01*
G01*
D11*
X364190Y886270D02*
G03*
X364190Y886270I-3000J0D01*
G01*
D12*
X596190Y836770D02*
X605690D01*
X260000Y740000D02*
Y933040D01*
X696880Y740000D02*
Y933040D01*
X260000Y740000D02*
X696880D01*
X260000Y933040D02*
X696880D01*
D13*
X564586Y779114D02*
Y774035D01*
X567125Y771496D01*
X569664Y774035D01*
Y779114D01*
X572203Y771496D02*
X574743D01*
X573473D01*
Y779114D01*
X572203Y777844D01*
X578551Y771496D02*
Y772766D01*
X579821D01*
Y771496D01*
X578551D01*
X584899Y777844D02*
X586169Y779114D01*
X588708D01*
X589978Y777844D01*
Y772766D01*
X588708Y771496D01*
X586169D01*
X584899Y772766D01*
Y777844D01*
X533464Y789528D02*
Y781910D01*
X537273D01*
X538542Y783180D01*
Y784449D01*
X537273Y785719D01*
X533464D01*
X537273D01*
X538542Y786988D01*
Y788258D01*
X537273Y789528D01*
X533464D01*
X541082Y786988D02*
Y781910D01*
Y784449D01*
X542351Y785719D01*
X543621Y786988D01*
X544890D01*
X553777Y789528D02*
Y781910D01*
X549969D01*
X548699Y783180D01*
Y785719D01*
X549969Y786988D01*
X553777D01*
X556317D02*
Y783180D01*
X557586Y781910D01*
X561395D01*
Y786988D01*
X563934Y781910D02*
X566473D01*
X565204D01*
Y786988D01*
X563934D01*
X570282Y781910D02*
Y786988D01*
X574091D01*
X575360Y785719D01*
Y781910D01*
X579169D02*
X581708D01*
X582978Y783180D01*
Y785719D01*
X581708Y786988D01*
X579169D01*
X577900Y785719D01*
Y783180D01*
X579169Y781910D01*
X585517Y785719D02*
X590596D01*
X593135Y781910D02*
Y789528D01*
X598213Y781910D01*
Y789528D01*
X602022Y786988D02*
X604561D01*
X605830Y785719D01*
Y781910D01*
X602022D01*
X600752Y783180D01*
X602022Y784449D01*
X605830D01*
X608370Y781910D02*
Y786988D01*
X612178D01*
X613448Y785719D01*
Y781910D01*
X617257D02*
X619796D01*
X621066Y783180D01*
Y785719D01*
X619796Y786988D01*
X617257D01*
X615987Y785719D01*
Y783180D01*
X617257Y781910D01*
M02*
