G04*
G04 #@! TF.GenerationSoftware,Altium Limited,Altium Designer,20.1.12 (249)*
G04*
G04 Layer_Color=128*
%FSLAX44Y44*%
%MOMM*%
G71*
G04*
G04 #@! TF.SameCoordinates,52A52E15-BC90-467E-9468-B7486D457421*
G04*
G04*
G04 #@! TF.FilePolarity,Positive*
G04*
G01*
G75*
%ADD12C,0.1000*%
%ADD77C,0.0508*%
D12*
X260000Y740000D02*
Y933040D01*
X696880Y740000D02*
Y933040D01*
X260000Y740000D02*
X696880D01*
X260000Y933040D02*
X696880D01*
D77*
X651240Y912720D02*
X661240D01*
X656240Y907720D02*
Y917720D01*
X670210Y913990D02*
X687990D01*
X679100Y905100D02*
Y922880D01*
X625840Y912720D02*
X635840D01*
X630840Y907720D02*
Y917720D01*
X600440Y912720D02*
X610440D01*
X605440Y907720D02*
Y917720D01*
X651240Y760320D02*
X661240D01*
X656240Y755320D02*
Y765320D01*
X575040Y912720D02*
X585040D01*
X580040Y907720D02*
Y917720D01*
X524240Y912720D02*
X534240D01*
X529240Y907720D02*
Y917720D01*
X549640Y912720D02*
X559640D01*
X554640Y907720D02*
Y917720D01*
X498840Y912720D02*
X508840D01*
X503840Y907720D02*
Y917720D01*
X473440Y912720D02*
X483440D01*
X478440Y907720D02*
Y917720D01*
X670210Y759050D02*
X687990D01*
X679100Y750160D02*
Y767940D01*
X600440Y760320D02*
X610440D01*
X605440Y755320D02*
Y765320D01*
X625840Y760320D02*
X635840D01*
X630840Y755320D02*
Y765320D01*
X575040Y760320D02*
X585040D01*
X580040Y755320D02*
Y765320D01*
X473440Y760320D02*
X483440D01*
X478440Y755320D02*
Y765320D01*
X498840Y760320D02*
X508840D01*
X503840Y755320D02*
Y765320D01*
X448040Y760320D02*
X458040D01*
X453040Y755320D02*
Y765320D01*
X549640Y760320D02*
X559640D01*
X554640Y755320D02*
Y765320D01*
X524240Y760320D02*
X534240D01*
X529240Y755320D02*
Y765320D01*
X422640Y912720D02*
X432640D01*
X427640Y907720D02*
Y917720D01*
X448040Y912720D02*
X458040D01*
X453040Y907720D02*
Y917720D01*
X422640Y760320D02*
X432640D01*
X427640Y755320D02*
Y765320D01*
X295640Y912720D02*
X305640D01*
X300640Y907720D02*
Y917720D01*
X321040Y912720D02*
X331040D01*
X326040Y907720D02*
Y917720D01*
X268890Y913990D02*
X286670D01*
X277780Y905100D02*
Y922880D01*
X371840Y912720D02*
X381840D01*
X376840Y907720D02*
Y917720D01*
X397240Y912720D02*
X407240D01*
X402240Y907720D02*
Y917720D01*
X346440Y912720D02*
X356440D01*
X351440Y907720D02*
Y917720D01*
X346440Y760320D02*
X356440D01*
X351440Y755320D02*
Y765320D01*
X397240Y760320D02*
X407240D01*
X402240Y755320D02*
Y765320D01*
X371840Y760320D02*
X381840D01*
X376840Y755320D02*
Y765320D01*
X268890Y759050D02*
X286670D01*
X277780Y750160D02*
Y767940D01*
X321040Y760320D02*
X331040D01*
X326040Y755320D02*
Y765320D01*
X295640Y760320D02*
X305640D01*
X300640Y755320D02*
Y765320D01*
X660715Y860070D02*
X684464D01*
X672590Y848195D02*
Y871945D01*
X652397Y879120D02*
X662303D01*
X657350Y874167D02*
Y884073D01*
X660715Y802920D02*
X684464D01*
X672590Y791046D02*
Y814794D01*
X642237Y802920D02*
X652143D01*
X647190Y797967D02*
Y807873D01*
X632077Y879120D02*
X641983D01*
X637030Y874167D02*
Y884073D01*
X609916Y860070D02*
X633665D01*
X621790Y848195D02*
Y871945D01*
X609916Y802920D02*
X633665D01*
X621790Y791046D02*
Y814794D01*
X274954Y878862D02*
X283954D01*
X279454Y874362D02*
Y883362D01*
X274954Y805862D02*
X283954D01*
X279454Y801362D02*
Y810362D01*
X326454Y826362D02*
X333454D01*
X329954Y822862D02*
Y829862D01*
X326454Y842362D02*
X333454D01*
X329954Y838862D02*
Y845862D01*
X326454Y858362D02*
X333454D01*
X329954Y854862D02*
Y861862D01*
X314454Y850362D02*
X321454D01*
X317954Y846862D02*
Y853862D01*
X314454Y834362D02*
X321454D01*
X317954Y830862D02*
Y837862D01*
X476154Y875890D02*
X478186D01*
X477170Y874874D02*
Y876906D01*
X476908Y868770D02*
X478940D01*
X477924Y867754D02*
Y869786D01*
X380174Y800782D02*
X382206D01*
X381190Y799766D02*
Y801798D01*
X390174Y800782D02*
X392206D01*
X391190Y799766D02*
Y801798D01*
X480726Y780270D02*
X482758D01*
X481742Y779254D02*
Y781286D01*
X502570Y805532D02*
X504602D01*
X503586Y804516D02*
Y806548D01*
X444722Y850808D02*
X446754D01*
X445738Y849792D02*
Y851824D01*
X539424Y860770D02*
X541456D01*
X540440Y859754D02*
Y861786D01*
X532924Y860770D02*
X534956D01*
X533940Y859754D02*
Y861786D01*
X532924Y868020D02*
X534956D01*
X533940Y867004D02*
Y869036D01*
X539424Y868020D02*
X541456D01*
X540440Y867004D02*
Y869036D01*
X344350Y853770D02*
X346382D01*
X345366Y852754D02*
Y854786D01*
X517810Y884526D02*
X519842D01*
X518826Y883510D02*
Y885542D01*
X511206Y884526D02*
X513238D01*
X512222Y883510D02*
Y885542D01*
X487584Y879446D02*
X489616D01*
X488600Y878430D02*
Y880462D01*
X487584Y872588D02*
X489616D01*
X488600Y871572D02*
Y873604D01*
X326294Y788514D02*
X328326D01*
X327310Y787498D02*
Y789530D01*
X320198Y788514D02*
X322230D01*
X321214Y787498D02*
Y789530D01*
X310038Y788514D02*
X312070D01*
X311054Y787498D02*
Y789530D01*
X303942Y788768D02*
X305974D01*
X304958Y787752D02*
Y789784D01*
X525430Y833726D02*
X527462D01*
X526446Y832710D02*
Y834742D01*
X513238Y834996D02*
X515270D01*
X514254Y833980D02*
Y836012D01*
X502824Y858872D02*
X504856D01*
X503840Y857856D02*
Y859888D01*
X522918Y898242D02*
X524950D01*
X523934Y897226D02*
Y899258D01*
X478440Y829916D02*
X480472D01*
X479456Y828900D02*
Y830932D01*
X477424Y847442D02*
X479456D01*
X478440Y846426D02*
Y848458D01*
X523144Y853284D02*
X525176D01*
X524160Y852268D02*
Y854300D01*
X526700Y881986D02*
X528732D01*
X527716Y880970D02*
Y883002D01*
X533304Y888336D02*
X535336D01*
X534320Y887320D02*
Y889352D01*
X526700Y874874D02*
X528732D01*
X527716Y873858D02*
Y875890D01*
X505364Y821026D02*
X507396D01*
X506380Y820010D02*
Y822042D01*
X482758Y824074D02*
X484790D01*
X483774Y823058D02*
Y825090D01*
X529748Y801468D02*
X531780D01*
X530764Y800452D02*
Y802484D01*
X518826Y809342D02*
X520858D01*
X519842Y808326D02*
Y810358D01*
X443642Y873858D02*
X445674D01*
X444658Y872842D02*
Y874874D01*
X451008Y873858D02*
X453040D01*
X452024Y872842D02*
Y874874D01*
X430434Y875128D02*
X432466D01*
X431450Y874112D02*
Y876144D01*
X423830Y878430D02*
X425862D01*
X424846Y877414D02*
Y879446D01*
X452278Y810358D02*
X454310D01*
X453294Y809342D02*
Y811374D01*
X452532Y820010D02*
X454564D01*
X453548Y818994D02*
Y821026D01*
X445166Y832456D02*
X447198D01*
X446182Y831440D02*
Y833472D01*
X480726Y794864D02*
X482758D01*
X481742Y793848D02*
Y795880D01*
X453802Y849220D02*
X455834D01*
X454818Y848204D02*
Y850236D01*
X439070Y822042D02*
X441102D01*
X440086Y821026D02*
Y823058D01*
X441356Y801468D02*
X443388D01*
X442372Y800452D02*
Y802484D01*
X419258Y829408D02*
X421290D01*
X420274Y828392D02*
Y830424D01*
X406304Y829154D02*
X408336D01*
X407320Y828138D02*
Y830170D01*
X420528Y871572D02*
X422560D01*
X421544Y870556D02*
Y872588D01*
X436530Y829154D02*
X438562D01*
X437546Y828138D02*
Y830170D01*
X354996Y890368D02*
X357028D01*
X356012Y889352D02*
Y891384D01*
X364140Y890876D02*
X366172D01*
X365156Y889860D02*
Y891892D01*
X413670Y876592D02*
X415702D01*
X414686Y875576D02*
Y877608D01*
X417480Y881986D02*
X419512D01*
X418496Y880970D02*
Y883002D01*
X435196Y806484D02*
X437228D01*
X436212Y805468D02*
Y807500D01*
X411924Y807532D02*
X413956D01*
X412940Y806516D02*
Y808548D01*
X402240Y803500D02*
X404272D01*
X403256Y802484D02*
Y804516D01*
X420972Y820582D02*
X423004D01*
X421988Y819566D02*
Y821598D01*
X401224Y814676D02*
X403256D01*
X402240Y813660D02*
Y815692D01*
X399382Y834044D02*
X401414D01*
X400398Y833028D02*
Y835060D01*
X385476Y827884D02*
X387508D01*
X386492Y826868D02*
Y828900D01*
X367950Y808834D02*
X369982D01*
X368966Y807818D02*
Y809850D01*
X377766Y829916D02*
X379798D01*
X378782Y828900D02*
Y830932D01*
X370654Y830170D02*
X372686D01*
X371670Y829154D02*
Y831186D01*
X392588Y837282D02*
X394620D01*
X393604Y836266D02*
Y838298D01*
X391064Y872842D02*
X393096D01*
X392080Y871826D02*
Y873858D01*
X389032Y854046D02*
X391064D01*
X390048Y853030D02*
Y855062D01*
X365664Y814930D02*
X367696D01*
X366680Y813914D02*
Y815946D01*
X562006Y795626D02*
X564038D01*
X563022Y794610D02*
Y796642D01*
X561498Y802444D02*
X563530D01*
X562514Y801428D02*
Y803460D01*
X626014Y781656D02*
X628046D01*
X627030Y780640D02*
Y782672D01*
X633634Y786736D02*
X635666D01*
X634650Y785720D02*
Y787752D01*
X650713Y787526D02*
X652745D01*
X651729Y786510D02*
Y788542D01*
X664368Y784770D02*
X666400D01*
X665384Y783754D02*
Y785786D01*
X375824Y873096D02*
X377856D01*
X376840Y872080D02*
Y874112D01*
X366426Y846426D02*
X368458D01*
X367442Y845410D02*
Y847442D01*
X370962Y838770D02*
X372994D01*
X371978Y837754D02*
Y839786D01*
X411384Y791816D02*
X413416D01*
X412400Y790800D02*
Y792832D01*
X343630Y773592D02*
X345662D01*
X344646Y772576D02*
Y774608D01*
X449484Y794102D02*
X451516D01*
X450500Y793086D02*
Y795118D01*
X439324Y794102D02*
X441356D01*
X440340Y793086D02*
Y795118D01*
X359452Y780270D02*
X361484D01*
X360468Y779254D02*
Y781286D01*
X354174Y792638D02*
X356206D01*
X355190Y791622D02*
Y793654D01*
X368204Y801214D02*
X370236D01*
X369220Y800198D02*
Y802230D01*
X365766Y857704D02*
X367798D01*
X366782Y856688D02*
Y858720D01*
X365918Y864968D02*
X367950D01*
X366934Y863952D02*
Y865984D01*
X462692Y893416D02*
X464724D01*
X463708Y892400D02*
Y894432D01*
X469042Y899766D02*
X471074D01*
X470058Y898750D02*
Y900782D01*
X660794Y818140D02*
X662826D01*
X661810Y817124D02*
Y819156D01*
X634074Y846770D02*
X636106D01*
X635090Y845754D02*
Y847786D01*
X645924Y890020D02*
X647956D01*
X646940Y889004D02*
Y891036D01*
X660174Y837020D02*
X662206D01*
X661190Y836004D02*
Y838036D01*
X636925Y775769D02*
X638957D01*
X637941Y774753D02*
Y776785D01*
X661624Y828320D02*
X663656D01*
X662640Y827304D02*
Y829336D01*
X585924Y868770D02*
X587956D01*
X586940Y867754D02*
Y869786D01*
X578674Y868770D02*
X580706D01*
X579690Y867754D02*
Y869786D01*
X585924Y861770D02*
X587956D01*
X586940Y860754D02*
Y862786D01*
X578674Y861770D02*
X580706D01*
X579690Y860754D02*
Y862786D01*
X558424Y828020D02*
X560456D01*
X559440Y827004D02*
Y829036D01*
X558424Y840020D02*
X560456D01*
X559440Y839004D02*
Y841036D01*
X558424Y852020D02*
X560456D01*
X559440Y851004D02*
Y853036D01*
X546924Y840020D02*
X548956D01*
X547940Y839004D02*
Y841036D01*
X569424Y840020D02*
X571456D01*
X570440Y839004D02*
Y841036D01*
X569424Y828020D02*
X571456D01*
X570440Y827004D02*
Y829036D01*
X546924Y828020D02*
X548956D01*
X547940Y827004D02*
Y829036D01*
X569424Y852020D02*
X571456D01*
X570440Y851004D02*
Y853036D01*
X546924Y852020D02*
X548956D01*
X547940Y851004D02*
Y853036D01*
X586174Y817270D02*
X588206D01*
X587190Y816254D02*
Y818286D01*
X586174Y810520D02*
X588206D01*
X587190Y809504D02*
Y811536D01*
X573174Y803520D02*
X575206D01*
X574190Y802504D02*
Y804536D01*
X537962Y816308D02*
X539994D01*
X538978Y815292D02*
Y817324D01*
X526674Y840270D02*
X528706D01*
X527690Y839254D02*
Y841286D01*
X617424Y823270D02*
X619456D01*
X618440Y822254D02*
Y824286D01*
X610424Y825770D02*
X612456D01*
X611440Y824754D02*
Y826786D01*
X602424Y847520D02*
X604456D01*
X603440Y846504D02*
Y848536D01*
M02*
