G04*
G04 #@! TF.GenerationSoftware,Altium Limited,Altium Designer,20.1.12 (249)*
G04*
G04 Layer_Color=2752767*
%FSLAX44Y44*%
%MOMM*%
G71*
G04*
G04 #@! TF.SameCoordinates,46D68336-88F1-4D35-9B3F-DF4CA844E206*
G04*
G04*
G04 #@! TF.FilePolarity,Positive*
G04*
G01*
G75*
%ADD12C,0.1000*%
%ADD78C,0.0508*%
%ADD79C,0.0677*%
D12*
X260000Y740000D02*
Y933040D01*
X696880Y740000D02*
Y933040D01*
X260000Y740000D02*
X696880D01*
X260000Y933040D02*
X696880D01*
D78*
X315922Y832330D02*
Y836394D01*
X319986D01*
Y832330D01*
X315922D01*
Y848330D02*
Y852394D01*
X319986D01*
Y848330D01*
X315922D01*
X327922Y856330D02*
Y860394D01*
X331986D01*
Y856330D01*
X327922D01*
Y840330D02*
Y844394D01*
X331986D01*
Y840330D01*
X327922D01*
Y824330D02*
Y828394D01*
X331986D01*
Y824330D01*
X327922D01*
X277780Y757018D02*
X275748Y761082D01*
X279812D01*
X277780Y757018D01*
Y911958D02*
X275748Y916022D01*
X279812D01*
X277780Y911958D01*
X679100D02*
X677068Y916022D01*
X681132D01*
X679100Y911958D01*
Y757018D02*
X677068Y761082D01*
X681132D01*
X679100Y757018D01*
X402240Y758288D02*
X403256Y759304D01*
X404272D01*
X403256Y760320D01*
X404272Y761336D01*
X403256D01*
X402240Y762352D01*
X401224Y761336D01*
X400208D01*
X401224Y760320D01*
X400208Y759304D01*
X401224D01*
X402240Y758288D01*
X656240D02*
X657256Y759304D01*
X658272D01*
X657256Y760320D01*
X658272Y761336D01*
X657256D01*
X656240Y762352D01*
X655224Y761336D01*
X654208D01*
X655224Y760320D01*
X654208Y759304D01*
X655224D01*
X656240Y758288D01*
X300640D02*
X301656Y759304D01*
X302672D01*
X301656Y760320D01*
X302672Y761336D01*
X301656D01*
X300640Y762352D01*
X299624Y761336D01*
X298608D01*
X299624Y760320D01*
X298608Y759304D01*
X299624D01*
X300640Y758288D01*
X351440D02*
X352456Y759304D01*
X353472D01*
X352456Y760320D01*
X353472Y761336D01*
X352456D01*
X351440Y762352D01*
X350424Y761336D01*
X349408D01*
X350424Y760320D01*
X349408Y759304D01*
X350424D01*
X351440Y758288D01*
X376840D02*
X377856Y759304D01*
X378872D01*
X377856Y760320D01*
X378872Y761336D01*
X377856D01*
X376840Y762352D01*
X375824Y761336D01*
X374808D01*
X375824Y760320D01*
X374808Y759304D01*
X375824D01*
X376840Y758288D01*
X453040D02*
X454056Y759304D01*
X455072D01*
X454056Y760320D01*
X455072Y761336D01*
X454056D01*
X453040Y762352D01*
X452024Y761336D01*
X451008D01*
X452024Y760320D01*
X451008Y759304D01*
X452024D01*
X453040Y758288D01*
X478440D02*
X479456Y759304D01*
X480472D01*
X479456Y760320D01*
X480472Y761336D01*
X479456D01*
X478440Y762352D01*
X477424Y761336D01*
X476408D01*
X477424Y760320D01*
X476408Y759304D01*
X477424D01*
X478440Y758288D01*
X503840D02*
X504856Y759304D01*
X505872D01*
X504856Y760320D01*
X505872Y761336D01*
X504856D01*
X503840Y762352D01*
X502824Y761336D01*
X501808D01*
X502824Y760320D01*
X501808Y759304D01*
X502824D01*
X503840Y758288D01*
X554640D02*
X555656Y759304D01*
X556672D01*
X555656Y760320D01*
X556672Y761336D01*
X555656D01*
X554640Y762352D01*
X553624Y761336D01*
X552608D01*
X553624Y760320D01*
X552608Y759304D01*
X553624D01*
X554640Y758288D01*
X580040D02*
X581056Y759304D01*
X582072D01*
X581056Y760320D01*
X582072Y761336D01*
X581056D01*
X580040Y762352D01*
X579024Y761336D01*
X578008D01*
X579024Y760320D01*
X578008Y759304D01*
X579024D01*
X580040Y758288D01*
X605440D02*
X606456Y759304D01*
X607472D01*
X606456Y760320D01*
X607472Y761336D01*
X606456D01*
X605440Y762352D01*
X604424Y761336D01*
X603408D01*
X604424Y760320D01*
X603408Y759304D01*
X604424D01*
X605440Y758288D01*
X326040D02*
X327056Y759304D01*
X328072D01*
X327056Y760320D01*
X328072Y761336D01*
X327056D01*
X326040Y762352D01*
X325024Y761336D01*
X324008D01*
X325024Y760320D01*
X324008Y759304D01*
X325024D01*
X326040Y758288D01*
X427640D02*
X428656Y759304D01*
X429672D01*
X428656Y760320D01*
X429672Y761336D01*
X428656D01*
X427640Y762352D01*
X426624Y761336D01*
X425608D01*
X426624Y760320D01*
X425608Y759304D01*
X426624D01*
X427640Y758288D01*
X529240D02*
X530256Y759304D01*
X531272D01*
X530256Y760320D01*
X531272Y761336D01*
X530256D01*
X529240Y762352D01*
X528224Y761336D01*
X527208D01*
X528224Y760320D01*
X527208Y759304D01*
X528224D01*
X529240Y758288D01*
X630840D02*
X631856Y759304D01*
X632872D01*
X631856Y760320D01*
X632872Y761336D01*
X631856D01*
X630840Y762352D01*
X629824Y761336D01*
X628808D01*
X629824Y760320D01*
X628808Y759304D01*
X629824D01*
X630840Y758288D01*
X402240Y910688D02*
X403256Y911704D01*
X404272D01*
X403256Y912720D01*
X404272Y913736D01*
X403256D01*
X402240Y914752D01*
X401224Y913736D01*
X400208D01*
X401224Y912720D01*
X400208Y911704D01*
X401224D01*
X402240Y910688D01*
X656240D02*
X657256Y911704D01*
X658272D01*
X657256Y912720D01*
X658272Y913736D01*
X657256D01*
X656240Y914752D01*
X655224Y913736D01*
X654208D01*
X655224Y912720D01*
X654208Y911704D01*
X655224D01*
X656240Y910688D01*
X300640D02*
X301656Y911704D01*
X302672D01*
X301656Y912720D01*
X302672Y913736D01*
X301656D01*
X300640Y914752D01*
X299624Y913736D01*
X298608D01*
X299624Y912720D01*
X298608Y911704D01*
X299624D01*
X300640Y910688D01*
X376840D02*
X377856Y911704D01*
X378872D01*
X377856Y912720D01*
X378872Y913736D01*
X377856D01*
X376840Y914752D01*
X375824Y913736D01*
X374808D01*
X375824Y912720D01*
X374808Y911704D01*
X375824D01*
X376840Y910688D01*
X351440D02*
X352456Y911704D01*
X353472D01*
X352456Y912720D01*
X353472Y913736D01*
X352456D01*
X351440Y914752D01*
X350424Y913736D01*
X349408D01*
X350424Y912720D01*
X349408Y911704D01*
X350424D01*
X351440Y910688D01*
X478440D02*
X479456Y911704D01*
X480472D01*
X479456Y912720D01*
X480472Y913736D01*
X479456D01*
X478440Y914752D01*
X477424Y913736D01*
X476408D01*
X477424Y912720D01*
X476408Y911704D01*
X477424D01*
X478440Y910688D01*
X453040D02*
X454056Y911704D01*
X455072D01*
X454056Y912720D01*
X455072Y913736D01*
X454056D01*
X453040Y914752D01*
X452024Y913736D01*
X451008D01*
X452024Y912720D01*
X451008Y911704D01*
X452024D01*
X453040Y910688D01*
X554640D02*
X555656Y911704D01*
X556672D01*
X555656Y912720D01*
X556672Y913736D01*
X555656D01*
X554640Y914752D01*
X553624Y913736D01*
X552608D01*
X553624Y912720D01*
X552608Y911704D01*
X553624D01*
X554640Y910688D01*
X503840D02*
X504856Y911704D01*
X505872D01*
X504856Y912720D01*
X505872Y913736D01*
X504856D01*
X503840Y914752D01*
X502824Y913736D01*
X501808D01*
X502824Y912720D01*
X501808Y911704D01*
X502824D01*
X503840Y910688D01*
X580040D02*
X581056Y911704D01*
X582072D01*
X581056Y912720D01*
X582072Y913736D01*
X581056D01*
X580040Y914752D01*
X579024Y913736D01*
X578008D01*
X579024Y912720D01*
X578008Y911704D01*
X579024D01*
X580040Y910688D01*
X605440D02*
X606456Y911704D01*
X607472D01*
X606456Y912720D01*
X607472Y913736D01*
X606456D01*
X605440Y914752D01*
X604424Y913736D01*
X603408D01*
X604424Y912720D01*
X603408Y911704D01*
X604424D01*
X605440Y910688D01*
X326040D02*
X327056Y911704D01*
X328072D01*
X327056Y912720D01*
X328072Y913736D01*
X327056D01*
X326040Y914752D01*
X325024Y913736D01*
X324008D01*
X325024Y912720D01*
X324008Y911704D01*
X325024D01*
X326040Y910688D01*
X427640D02*
X428656Y911704D01*
X429672D01*
X428656Y912720D01*
X429672Y913736D01*
X428656D01*
X427640Y914752D01*
X426624Y913736D01*
X425608D01*
X426624Y912720D01*
X425608Y911704D01*
X426624D01*
X427640Y910688D01*
X529240D02*
X530256Y911704D01*
X531272D01*
X530256Y912720D01*
X531272Y913736D01*
X530256D01*
X529240Y914752D01*
X528224Y913736D01*
X527208D01*
X528224Y912720D01*
X527208Y911704D01*
X528224D01*
X529240Y910688D01*
X630840D02*
X631856Y911704D01*
X632872D01*
X631856Y912720D01*
X632872Y913736D01*
X631856D01*
X630840Y914752D01*
X629824Y913736D01*
X628808D01*
X629824Y912720D01*
X628808Y911704D01*
X629824D01*
X630840Y910688D01*
X670558Y858038D02*
X671574Y860070D01*
X670558Y862102D01*
X672590Y861086D01*
X674622Y862102D01*
X673606Y860070D01*
X674622Y858038D01*
X672590Y859054D01*
X670558Y858038D01*
X656334Y878104D02*
Y877088D01*
X658366D01*
Y878104D01*
X659382D01*
Y880136D01*
X658366D01*
Y881152D01*
X656334D01*
Y880136D01*
X655318D01*
Y878104D01*
X656334D01*
X670558Y800888D02*
X671574Y802920D01*
X670558Y804952D01*
X672590Y803936D01*
X674622Y804952D01*
X673606Y802920D01*
X674622Y800888D01*
X672590Y801904D01*
X670558Y800888D01*
X646174Y801904D02*
Y800888D01*
X648206D01*
Y801904D01*
X649222D01*
Y803936D01*
X648206D01*
Y804952D01*
X646174D01*
Y803936D01*
X645158D01*
Y801904D01*
X646174D01*
X636014Y878104D02*
Y877088D01*
X638046D01*
Y878104D01*
X639062D01*
Y880136D01*
X638046D01*
Y881152D01*
X636014D01*
Y880136D01*
X634998D01*
Y878104D01*
X636014D01*
X619758Y858038D02*
X620774Y860070D01*
X619758Y862102D01*
X621790Y861086D01*
X623822Y862102D01*
X622806Y860070D01*
X623822Y858038D01*
X621790Y859054D01*
X619758Y858038D01*
Y800888D02*
X620774Y802920D01*
X619758Y804952D01*
X621790Y803936D01*
X623822Y804952D01*
X622806Y802920D01*
X623822Y800888D01*
X621790Y801904D01*
X619758Y800888D01*
X343334Y851738D02*
X344350D01*
X345366Y852754D01*
X346382Y851738D01*
X347398D01*
Y852754D01*
X346382Y853770D01*
X347398Y854786D01*
Y855802D01*
X346382D01*
X345366Y854786D01*
X344350Y855802D01*
X343334D01*
Y854786D01*
X344350Y853770D01*
X343334Y852754D01*
Y851738D01*
X369652Y848636D02*
X370668D01*
X371684Y849652D01*
X372700Y848636D01*
X373716D01*
Y849652D01*
X372700Y850668D01*
X373716Y851684D01*
Y852700D01*
X372700D01*
X371684Y851684D01*
X370668Y852700D01*
X369652D01*
Y851684D01*
X370668Y850668D01*
X369652Y849652D01*
Y848636D01*
X449992Y863634D02*
X451008D01*
X452024Y864650D01*
X453040Y863634D01*
X454056D01*
Y864650D01*
X453040Y865666D01*
X454056Y866682D01*
Y867698D01*
X453040D01*
X452024Y866682D01*
X451008Y867698D01*
X449992D01*
Y866682D01*
X451008Y865666D01*
X449992Y864650D01*
Y863634D01*
X516794Y858738D02*
X517810D01*
X518826Y859754D01*
X519842Y858738D01*
X520858D01*
Y859754D01*
X519842Y860770D01*
X520858Y861786D01*
Y862802D01*
X519842D01*
X518826Y861786D01*
X517810Y862802D01*
X516794D01*
Y861786D01*
X517810Y860770D01*
X516794Y859754D01*
Y858738D01*
X486568Y862682D02*
X487584D01*
X488600Y863698D01*
X489616Y862682D01*
X490632D01*
Y863698D01*
X489616Y864714D01*
X490632Y865730D01*
Y866746D01*
X489616D01*
X488600Y865730D01*
X487584Y866746D01*
X486568D01*
Y865730D01*
X487584Y864714D01*
X486568Y863698D01*
Y862682D01*
X672107Y775687D02*
X673123D01*
X674139Y776703D01*
X675155Y775687D01*
X676171D01*
Y776703D01*
X675155Y777719D01*
X676171Y778735D01*
Y779751D01*
X675155D01*
X674139Y778735D01*
X673123Y779751D01*
X672107D01*
Y778735D01*
X673123Y777719D01*
X672107Y776703D01*
Y775687D01*
X475138Y873858D02*
X476154D01*
X477170Y874874D01*
X478186Y873858D01*
X479202D01*
Y874874D01*
X478186Y875890D01*
X479202Y876906D01*
Y877922D01*
X478186D01*
X477170Y876906D01*
X476154Y877922D01*
X475138D01*
Y876906D01*
X476154Y875890D01*
X475138Y874874D01*
Y873858D01*
X475892Y866738D02*
X476908D01*
X477924Y867754D01*
X478940Y866738D01*
X479956D01*
Y867754D01*
X478940Y868770D01*
X479956Y869786D01*
Y870802D01*
X478940D01*
X477924Y869786D01*
X476908Y870802D01*
X475892D01*
Y869786D01*
X476908Y868770D01*
X475892Y867754D01*
Y866738D01*
X379158Y798750D02*
X380174D01*
X381190Y799766D01*
X382206Y798750D01*
X383222D01*
Y799766D01*
X382206Y800782D01*
X383222Y801798D01*
Y802814D01*
X382206D01*
X381190Y801798D01*
X380174Y802814D01*
X379158D01*
Y801798D01*
X380174Y800782D01*
X379158Y799766D01*
Y798750D01*
X389158D02*
X390174D01*
X391190Y799766D01*
X392206Y798750D01*
X393222D01*
Y799766D01*
X392206Y800782D01*
X393222Y801798D01*
Y802814D01*
X392206D01*
X391190Y801798D01*
X390174Y802814D01*
X389158D01*
Y801798D01*
X390174Y800782D01*
X389158Y799766D01*
Y798750D01*
X479710Y778238D02*
X480726D01*
X481742Y779254D01*
X482758Y778238D01*
X483774D01*
Y779254D01*
X482758Y780270D01*
X483774Y781286D01*
Y782302D01*
X482758D01*
X481742Y781286D01*
X480726Y782302D01*
X479710D01*
Y781286D01*
X480726Y780270D01*
X479710Y779254D01*
Y778238D01*
X501554Y803500D02*
X502570D01*
X503586Y804516D01*
X504602Y803500D01*
X505618D01*
Y804516D01*
X504602Y805532D01*
X505618Y806548D01*
Y807564D01*
X504602D01*
X503586Y806548D01*
X502570Y807564D01*
X501554D01*
Y806548D01*
X502570Y805532D01*
X501554Y804516D01*
Y803500D01*
X443706Y848776D02*
X444722D01*
X445738Y849792D01*
X446754Y848776D01*
X447770D01*
Y849792D01*
X446754Y850808D01*
X447770Y851824D01*
Y852840D01*
X446754D01*
X445738Y851824D01*
X444722Y852840D01*
X443706D01*
Y851824D01*
X444722Y850808D01*
X443706Y849792D01*
Y848776D01*
X538408Y858738D02*
X539424D01*
X540440Y859754D01*
X541456Y858738D01*
X542472D01*
Y859754D01*
X541456Y860770D01*
X542472Y861786D01*
Y862802D01*
X541456D01*
X540440Y861786D01*
X539424Y862802D01*
X538408D01*
Y861786D01*
X539424Y860770D01*
X538408Y859754D01*
Y858738D01*
X531908D02*
X532924D01*
X533940Y859754D01*
X534956Y858738D01*
X535972D01*
Y859754D01*
X534956Y860770D01*
X535972Y861786D01*
Y862802D01*
X534956D01*
X533940Y861786D01*
X532924Y862802D01*
X531908D01*
Y861786D01*
X532924Y860770D01*
X531908Y859754D01*
Y858738D01*
Y865988D02*
X532924D01*
X533940Y867004D01*
X534956Y865988D01*
X535972D01*
Y867004D01*
X534956Y868020D01*
X535972Y869036D01*
Y870052D01*
X534956D01*
X533940Y869036D01*
X532924Y870052D01*
X531908D01*
Y869036D01*
X532924Y868020D01*
X531908Y867004D01*
Y865988D01*
X538408D02*
X539424D01*
X540440Y867004D01*
X541456Y865988D01*
X542472D01*
Y867004D01*
X541456Y868020D01*
X542472Y869036D01*
Y870052D01*
X541456D01*
X540440Y869036D01*
X539424Y870052D01*
X538408D01*
Y869036D01*
X539424Y868020D01*
X538408Y867004D01*
Y865988D01*
X516794Y882494D02*
X517810D01*
X518826Y883510D01*
X519842Y882494D01*
X520858D01*
Y883510D01*
X519842Y884526D01*
X520858Y885542D01*
Y886558D01*
X519842D01*
X518826Y885542D01*
X517810Y886558D01*
X516794D01*
Y885542D01*
X517810Y884526D01*
X516794Y883510D01*
Y882494D01*
X510190D02*
X511206D01*
X512222Y883510D01*
X513238Y882494D01*
X514254D01*
Y883510D01*
X513238Y884526D01*
X514254Y885542D01*
Y886558D01*
X513238D01*
X512222Y885542D01*
X511206Y886558D01*
X510190D01*
Y885542D01*
X511206Y884526D01*
X510190Y883510D01*
Y882494D01*
X486568Y877414D02*
X487584D01*
X488600Y878430D01*
X489616Y877414D01*
X490632D01*
Y878430D01*
X489616Y879446D01*
X490632Y880462D01*
Y881478D01*
X489616D01*
X488600Y880462D01*
X487584Y881478D01*
X486568D01*
Y880462D01*
X487584Y879446D01*
X486568Y878430D01*
Y877414D01*
Y870556D02*
X487584D01*
X488600Y871572D01*
X489616Y870556D01*
X490632D01*
Y871572D01*
X489616Y872588D01*
X490632Y873604D01*
Y874620D01*
X489616D01*
X488600Y873604D01*
X487584Y874620D01*
X486568D01*
Y873604D01*
X487584Y872588D01*
X486568Y871572D01*
Y870556D01*
X325278Y786482D02*
X326294D01*
X327310Y787498D01*
X328326Y786482D01*
X329342D01*
Y787498D01*
X328326Y788514D01*
X329342Y789530D01*
Y790546D01*
X328326D01*
X327310Y789530D01*
X326294Y790546D01*
X325278D01*
Y789530D01*
X326294Y788514D01*
X325278Y787498D01*
Y786482D01*
X319182D02*
X320198D01*
X321214Y787498D01*
X322230Y786482D01*
X323246D01*
Y787498D01*
X322230Y788514D01*
X323246Y789530D01*
Y790546D01*
X322230D01*
X321214Y789530D01*
X320198Y790546D01*
X319182D01*
Y789530D01*
X320198Y788514D01*
X319182Y787498D01*
Y786482D01*
X309022D02*
X310038D01*
X311054Y787498D01*
X312070Y786482D01*
X313086D01*
Y787498D01*
X312070Y788514D01*
X313086Y789530D01*
Y790546D01*
X312070D01*
X311054Y789530D01*
X310038Y790546D01*
X309022D01*
Y789530D01*
X310038Y788514D01*
X309022Y787498D01*
Y786482D01*
X302926Y786736D02*
X303942D01*
X304958Y787752D01*
X305974Y786736D01*
X306990D01*
Y787752D01*
X305974Y788768D01*
X306990Y789784D01*
Y790800D01*
X305974D01*
X304958Y789784D01*
X303942Y790800D01*
X302926D01*
Y789784D01*
X303942Y788768D01*
X302926Y787752D01*
Y786736D01*
X524414Y831694D02*
X525430D01*
X526446Y832710D01*
X527462Y831694D01*
X528478D01*
Y832710D01*
X527462Y833726D01*
X528478Y834742D01*
Y835758D01*
X527462D01*
X526446Y834742D01*
X525430Y835758D01*
X524414D01*
Y834742D01*
X525430Y833726D01*
X524414Y832710D01*
Y831694D01*
X512222Y832964D02*
X513238D01*
X514254Y833980D01*
X515270Y832964D01*
X516286D01*
Y833980D01*
X515270Y834996D01*
X516286Y836012D01*
Y837028D01*
X515270D01*
X514254Y836012D01*
X513238Y837028D01*
X512222D01*
Y836012D01*
X513238Y834996D01*
X512222Y833980D01*
Y832964D01*
X501808Y856840D02*
X502824D01*
X503840Y857856D01*
X504856Y856840D01*
X505872D01*
Y857856D01*
X504856Y858872D01*
X505872Y859888D01*
Y860904D01*
X504856D01*
X503840Y859888D01*
X502824Y860904D01*
X501808D01*
Y859888D01*
X502824Y858872D01*
X501808Y857856D01*
Y856840D01*
X521902Y896210D02*
X522918D01*
X523934Y897226D01*
X524950Y896210D01*
X525966D01*
Y897226D01*
X524950Y898242D01*
X525966Y899258D01*
Y900274D01*
X524950D01*
X523934Y899258D01*
X522918Y900274D01*
X521902D01*
Y899258D01*
X522918Y898242D01*
X521902Y897226D01*
Y896210D01*
X477424Y827884D02*
X478440D01*
X479456Y828900D01*
X480472Y827884D01*
X481488D01*
Y828900D01*
X480472Y829916D01*
X481488Y830932D01*
Y831948D01*
X480472D01*
X479456Y830932D01*
X478440Y831948D01*
X477424D01*
Y830932D01*
X478440Y829916D01*
X477424Y828900D01*
Y827884D01*
X476408Y845410D02*
X477424D01*
X478440Y846426D01*
X479456Y845410D01*
X480472D01*
Y846426D01*
X479456Y847442D01*
X480472Y848458D01*
Y849474D01*
X479456D01*
X478440Y848458D01*
X477424Y849474D01*
X476408D01*
Y848458D01*
X477424Y847442D01*
X476408Y846426D01*
Y845410D01*
X522128Y851252D02*
X523144D01*
X524160Y852268D01*
X525176Y851252D01*
X526192D01*
Y852268D01*
X525176Y853284D01*
X526192Y854300D01*
Y855316D01*
X525176D01*
X524160Y854300D01*
X523144Y855316D01*
X522128D01*
Y854300D01*
X523144Y853284D01*
X522128Y852268D01*
Y851252D01*
X525684Y879954D02*
X526700D01*
X527716Y880970D01*
X528732Y879954D01*
X529748D01*
Y880970D01*
X528732Y881986D01*
X529748Y883002D01*
Y884018D01*
X528732D01*
X527716Y883002D01*
X526700Y884018D01*
X525684D01*
Y883002D01*
X526700Y881986D01*
X525684Y880970D01*
Y879954D01*
X532288Y886304D02*
X533304D01*
X534320Y887320D01*
X535336Y886304D01*
X536352D01*
Y887320D01*
X535336Y888336D01*
X536352Y889352D01*
Y890368D01*
X535336D01*
X534320Y889352D01*
X533304Y890368D01*
X532288D01*
Y889352D01*
X533304Y888336D01*
X532288Y887320D01*
Y886304D01*
X525684Y872842D02*
X526700D01*
X527716Y873858D01*
X528732Y872842D01*
X529748D01*
Y873858D01*
X528732Y874874D01*
X529748Y875890D01*
Y876906D01*
X528732D01*
X527716Y875890D01*
X526700Y876906D01*
X525684D01*
Y875890D01*
X526700Y874874D01*
X525684Y873858D01*
Y872842D01*
X504348Y818994D02*
X505364D01*
X506380Y820010D01*
X507396Y818994D01*
X508412D01*
Y820010D01*
X507396Y821026D01*
X508412Y822042D01*
Y823058D01*
X507396D01*
X506380Y822042D01*
X505364Y823058D01*
X504348D01*
Y822042D01*
X505364Y821026D01*
X504348Y820010D01*
Y818994D01*
X481742Y822042D02*
X482758D01*
X483774Y823058D01*
X484790Y822042D01*
X485806D01*
Y823058D01*
X484790Y824074D01*
X485806Y825090D01*
Y826106D01*
X484790D01*
X483774Y825090D01*
X482758Y826106D01*
X481742D01*
Y825090D01*
X482758Y824074D01*
X481742Y823058D01*
Y822042D01*
X528732Y799436D02*
X529748D01*
X530764Y800452D01*
X531780Y799436D01*
X532796D01*
Y800452D01*
X531780Y801468D01*
X532796Y802484D01*
Y803500D01*
X531780D01*
X530764Y802484D01*
X529748Y803500D01*
X528732D01*
Y802484D01*
X529748Y801468D01*
X528732Y800452D01*
Y799436D01*
X517810Y807310D02*
X518826D01*
X519842Y808326D01*
X520858Y807310D01*
X521874D01*
Y808326D01*
X520858Y809342D01*
X521874Y810358D01*
Y811374D01*
X520858D01*
X519842Y810358D01*
X518826Y811374D01*
X517810D01*
Y810358D01*
X518826Y809342D01*
X517810Y808326D01*
Y807310D01*
X442626Y871826D02*
X443642D01*
X444658Y872842D01*
X445674Y871826D01*
X446690D01*
Y872842D01*
X445674Y873858D01*
X446690Y874874D01*
Y875890D01*
X445674D01*
X444658Y874874D01*
X443642Y875890D01*
X442626D01*
Y874874D01*
X443642Y873858D01*
X442626Y872842D01*
Y871826D01*
X449992D02*
X451008D01*
X452024Y872842D01*
X453040Y871826D01*
X454056D01*
Y872842D01*
X453040Y873858D01*
X454056Y874874D01*
Y875890D01*
X453040D01*
X452024Y874874D01*
X451008Y875890D01*
X449992D01*
Y874874D01*
X451008Y873858D01*
X449992Y872842D01*
Y871826D01*
X429418Y873096D02*
X430434D01*
X431450Y874112D01*
X432466Y873096D01*
X433482D01*
Y874112D01*
X432466Y875128D01*
X433482Y876144D01*
Y877160D01*
X432466D01*
X431450Y876144D01*
X430434Y877160D01*
X429418D01*
Y876144D01*
X430434Y875128D01*
X429418Y874112D01*
Y873096D01*
X422814Y876398D02*
X423830D01*
X424846Y877414D01*
X425862Y876398D01*
X426878D01*
Y877414D01*
X425862Y878430D01*
X426878Y879446D01*
Y880462D01*
X425862D01*
X424846Y879446D01*
X423830Y880462D01*
X422814D01*
Y879446D01*
X423830Y878430D01*
X422814Y877414D01*
Y876398D01*
X451262Y808326D02*
X452278D01*
X453294Y809342D01*
X454310Y808326D01*
X455326D01*
Y809342D01*
X454310Y810358D01*
X455326Y811374D01*
Y812390D01*
X454310D01*
X453294Y811374D01*
X452278Y812390D01*
X451262D01*
Y811374D01*
X452278Y810358D01*
X451262Y809342D01*
Y808326D01*
X451516Y817978D02*
X452532D01*
X453548Y818994D01*
X454564Y817978D01*
X455580D01*
Y818994D01*
X454564Y820010D01*
X455580Y821026D01*
Y822042D01*
X454564D01*
X453548Y821026D01*
X452532Y822042D01*
X451516D01*
Y821026D01*
X452532Y820010D01*
X451516Y818994D01*
Y817978D01*
X444150Y830424D02*
X445166D01*
X446182Y831440D01*
X447198Y830424D01*
X448214D01*
Y831440D01*
X447198Y832456D01*
X448214Y833472D01*
Y834488D01*
X447198D01*
X446182Y833472D01*
X445166Y834488D01*
X444150D01*
Y833472D01*
X445166Y832456D01*
X444150Y831440D01*
Y830424D01*
X479710Y792832D02*
X480726D01*
X481742Y793848D01*
X482758Y792832D01*
X483774D01*
Y793848D01*
X482758Y794864D01*
X483774Y795880D01*
Y796896D01*
X482758D01*
X481742Y795880D01*
X480726Y796896D01*
X479710D01*
Y795880D01*
X480726Y794864D01*
X479710Y793848D01*
Y792832D01*
X452786Y847188D02*
X453802D01*
X454818Y848204D01*
X455834Y847188D01*
X456850D01*
Y848204D01*
X455834Y849220D01*
X456850Y850236D01*
Y851252D01*
X455834D01*
X454818Y850236D01*
X453802Y851252D01*
X452786D01*
Y850236D01*
X453802Y849220D01*
X452786Y848204D01*
Y847188D01*
X438054Y820010D02*
X439070D01*
X440086Y821026D01*
X441102Y820010D01*
X442118D01*
Y821026D01*
X441102Y822042D01*
X442118Y823058D01*
Y824074D01*
X441102D01*
X440086Y823058D01*
X439070Y824074D01*
X438054D01*
Y823058D01*
X439070Y822042D01*
X438054Y821026D01*
Y820010D01*
X440340Y799436D02*
X441356D01*
X442372Y800452D01*
X443388Y799436D01*
X444404D01*
Y800452D01*
X443388Y801468D01*
X444404Y802484D01*
Y803500D01*
X443388D01*
X442372Y802484D01*
X441356Y803500D01*
X440340D01*
Y802484D01*
X441356Y801468D01*
X440340Y800452D01*
Y799436D01*
X418242Y827376D02*
X419258D01*
X420274Y828392D01*
X421290Y827376D01*
X422306D01*
Y828392D01*
X421290Y829408D01*
X422306Y830424D01*
Y831440D01*
X421290D01*
X420274Y830424D01*
X419258Y831440D01*
X418242D01*
Y830424D01*
X419258Y829408D01*
X418242Y828392D01*
Y827376D01*
X405288Y827122D02*
X406304D01*
X407320Y828138D01*
X408336Y827122D01*
X409352D01*
Y828138D01*
X408336Y829154D01*
X409352Y830170D01*
Y831186D01*
X408336D01*
X407320Y830170D01*
X406304Y831186D01*
X405288D01*
Y830170D01*
X406304Y829154D01*
X405288Y828138D01*
Y827122D01*
X419512Y869540D02*
X420528D01*
X421544Y870556D01*
X422560Y869540D01*
X423576D01*
Y870556D01*
X422560Y871572D01*
X423576Y872588D01*
Y873604D01*
X422560D01*
X421544Y872588D01*
X420528Y873604D01*
X419512D01*
Y872588D01*
X420528Y871572D01*
X419512Y870556D01*
Y869540D01*
X435514Y827122D02*
X436530D01*
X437546Y828138D01*
X438562Y827122D01*
X439578D01*
Y828138D01*
X438562Y829154D01*
X439578Y830170D01*
Y831186D01*
X438562D01*
X437546Y830170D01*
X436530Y831186D01*
X435514D01*
Y830170D01*
X436530Y829154D01*
X435514Y828138D01*
Y827122D01*
X353980Y888336D02*
X354996D01*
X356012Y889352D01*
X357028Y888336D01*
X358044D01*
Y889352D01*
X357028Y890368D01*
X358044Y891384D01*
Y892400D01*
X357028D01*
X356012Y891384D01*
X354996Y892400D01*
X353980D01*
Y891384D01*
X354996Y890368D01*
X353980Y889352D01*
Y888336D01*
X363124Y888844D02*
X364140D01*
X365156Y889860D01*
X366172Y888844D01*
X367188D01*
Y889860D01*
X366172Y890876D01*
X367188Y891892D01*
Y892908D01*
X366172D01*
X365156Y891892D01*
X364140Y892908D01*
X363124D01*
Y891892D01*
X364140Y890876D01*
X363124Y889860D01*
Y888844D01*
X412654Y874560D02*
X413670D01*
X414686Y875576D01*
X415702Y874560D01*
X416718D01*
Y875576D01*
X415702Y876592D01*
X416718Y877608D01*
Y878624D01*
X415702D01*
X414686Y877608D01*
X413670Y878624D01*
X412654D01*
Y877608D01*
X413670Y876592D01*
X412654Y875576D01*
Y874560D01*
X416464Y879954D02*
X417480D01*
X418496Y880970D01*
X419512Y879954D01*
X420528D01*
Y880970D01*
X419512Y881986D01*
X420528Y883002D01*
Y884018D01*
X419512D01*
X418496Y883002D01*
X417480Y884018D01*
X416464D01*
Y883002D01*
X417480Y881986D01*
X416464Y880970D01*
Y879954D01*
X434180Y804452D02*
X435196D01*
X436212Y805468D01*
X437228Y804452D01*
X438244D01*
Y805468D01*
X437228Y806484D01*
X438244Y807500D01*
Y808516D01*
X437228D01*
X436212Y807500D01*
X435196Y808516D01*
X434180D01*
Y807500D01*
X435196Y806484D01*
X434180Y805468D01*
Y804452D01*
X410908Y805500D02*
X411924D01*
X412940Y806516D01*
X413956Y805500D01*
X414972D01*
Y806516D01*
X413956Y807532D01*
X414972Y808548D01*
Y809564D01*
X413956D01*
X412940Y808548D01*
X411924Y809564D01*
X410908D01*
Y808548D01*
X411924Y807532D01*
X410908Y806516D01*
Y805500D01*
X401224Y801468D02*
X402240D01*
X403256Y802484D01*
X404272Y801468D01*
X405288D01*
Y802484D01*
X404272Y803500D01*
X405288Y804516D01*
Y805532D01*
X404272D01*
X403256Y804516D01*
X402240Y805532D01*
X401224D01*
Y804516D01*
X402240Y803500D01*
X401224Y802484D01*
Y801468D01*
X419956Y818550D02*
X420972D01*
X421988Y819566D01*
X423004Y818550D01*
X424020D01*
Y819566D01*
X423004Y820582D01*
X424020Y821598D01*
Y822614D01*
X423004D01*
X421988Y821598D01*
X420972Y822614D01*
X419956D01*
Y821598D01*
X420972Y820582D01*
X419956Y819566D01*
Y818550D01*
X400208Y812644D02*
X401224D01*
X402240Y813660D01*
X403256Y812644D01*
X404272D01*
Y813660D01*
X403256Y814676D01*
X404272Y815692D01*
Y816708D01*
X403256D01*
X402240Y815692D01*
X401224Y816708D01*
X400208D01*
Y815692D01*
X401224Y814676D01*
X400208Y813660D01*
Y812644D01*
X398366Y832012D02*
X399382D01*
X400398Y833028D01*
X401414Y832012D01*
X402430D01*
Y833028D01*
X401414Y834044D01*
X402430Y835060D01*
Y836076D01*
X401414D01*
X400398Y835060D01*
X399382Y836076D01*
X398366D01*
Y835060D01*
X399382Y834044D01*
X398366Y833028D01*
Y832012D01*
X384460Y825852D02*
X385476D01*
X386492Y826868D01*
X387508Y825852D01*
X388524D01*
Y826868D01*
X387508Y827884D01*
X388524Y828900D01*
Y829916D01*
X387508D01*
X386492Y828900D01*
X385476Y829916D01*
X384460D01*
Y828900D01*
X385476Y827884D01*
X384460Y826868D01*
Y825852D01*
X366934Y806802D02*
X367950D01*
X368966Y807818D01*
X369982Y806802D01*
X370998D01*
Y807818D01*
X369982Y808834D01*
X370998Y809850D01*
Y810866D01*
X369982D01*
X368966Y809850D01*
X367950Y810866D01*
X366934D01*
Y809850D01*
X367950Y808834D01*
X366934Y807818D01*
Y806802D01*
X376750Y827884D02*
X377766D01*
X378782Y828900D01*
X379798Y827884D01*
X380814D01*
Y828900D01*
X379798Y829916D01*
X380814Y830932D01*
Y831948D01*
X379798D01*
X378782Y830932D01*
X377766Y831948D01*
X376750D01*
Y830932D01*
X377766Y829916D01*
X376750Y828900D01*
Y827884D01*
X369638Y828138D02*
X370654D01*
X371670Y829154D01*
X372686Y828138D01*
X373702D01*
Y829154D01*
X372686Y830170D01*
X373702Y831186D01*
Y832202D01*
X372686D01*
X371670Y831186D01*
X370654Y832202D01*
X369638D01*
Y831186D01*
X370654Y830170D01*
X369638Y829154D01*
Y828138D01*
X391572Y835250D02*
X392588D01*
X393604Y836266D01*
X394620Y835250D01*
X395636D01*
Y836266D01*
X394620Y837282D01*
X395636Y838298D01*
Y839314D01*
X394620D01*
X393604Y838298D01*
X392588Y839314D01*
X391572D01*
Y838298D01*
X392588Y837282D01*
X391572Y836266D01*
Y835250D01*
X390048Y870810D02*
X391064D01*
X392080Y871826D01*
X393096Y870810D01*
X394112D01*
Y871826D01*
X393096Y872842D01*
X394112Y873858D01*
Y874874D01*
X393096D01*
X392080Y873858D01*
X391064Y874874D01*
X390048D01*
Y873858D01*
X391064Y872842D01*
X390048Y871826D01*
Y870810D01*
X388016Y852014D02*
X389032D01*
X390048Y853030D01*
X391064Y852014D01*
X392080D01*
Y853030D01*
X391064Y854046D01*
X392080Y855062D01*
Y856078D01*
X391064D01*
X390048Y855062D01*
X389032Y856078D01*
X388016D01*
Y855062D01*
X389032Y854046D01*
X388016Y853030D01*
Y852014D01*
X364648Y812898D02*
X365664D01*
X366680Y813914D01*
X367696Y812898D01*
X368712D01*
Y813914D01*
X367696Y814930D01*
X368712Y815946D01*
Y816962D01*
X367696D01*
X366680Y815946D01*
X365664Y816962D01*
X364648D01*
Y815946D01*
X365664Y814930D01*
X364648Y813914D01*
Y812898D01*
X560990Y793594D02*
X562006D01*
X563022Y794610D01*
X564038Y793594D01*
X565054D01*
Y794610D01*
X564038Y795626D01*
X565054Y796642D01*
Y797658D01*
X564038D01*
X563022Y796642D01*
X562006Y797658D01*
X560990D01*
Y796642D01*
X562006Y795626D01*
X560990Y794610D01*
Y793594D01*
X560482Y800412D02*
X561498D01*
X562514Y801428D01*
X563530Y800412D01*
X564546D01*
Y801428D01*
X563530Y802444D01*
X564546Y803460D01*
Y804476D01*
X563530D01*
X562514Y803460D01*
X561498Y804476D01*
X560482D01*
Y803460D01*
X561498Y802444D01*
X560482Y801428D01*
Y800412D01*
X624998Y779624D02*
X626014D01*
X627030Y780640D01*
X628046Y779624D01*
X629062D01*
Y780640D01*
X628046Y781656D01*
X629062Y782672D01*
Y783688D01*
X628046D01*
X627030Y782672D01*
X626014Y783688D01*
X624998D01*
Y782672D01*
X626014Y781656D01*
X624998Y780640D01*
Y779624D01*
X632618Y784704D02*
X633634D01*
X634650Y785720D01*
X635666Y784704D01*
X636682D01*
Y785720D01*
X635666Y786736D01*
X636682Y787752D01*
Y788768D01*
X635666D01*
X634650Y787752D01*
X633634Y788768D01*
X632618D01*
Y787752D01*
X633634Y786736D01*
X632618Y785720D01*
Y784704D01*
X649697Y785494D02*
X650713D01*
X651729Y786510D01*
X652745Y785494D01*
X653761D01*
Y786510D01*
X652745Y787526D01*
X653761Y788542D01*
Y789558D01*
X652745D01*
X651729Y788542D01*
X650713Y789558D01*
X649697D01*
Y788542D01*
X650713Y787526D01*
X649697Y786510D01*
Y785494D01*
X663352Y782738D02*
X664368D01*
X665384Y783754D01*
X666400Y782738D01*
X667416D01*
Y783754D01*
X666400Y784770D01*
X667416Y785786D01*
Y786802D01*
X666400D01*
X665384Y785786D01*
X664368Y786802D01*
X663352D01*
Y785786D01*
X664368Y784770D01*
X663352Y783754D01*
Y782738D01*
X374808Y871064D02*
X375824D01*
X376840Y872080D01*
X377856Y871064D01*
X378872D01*
Y872080D01*
X377856Y873096D01*
X378872Y874112D01*
Y875128D01*
X377856D01*
X376840Y874112D01*
X375824Y875128D01*
X374808D01*
Y874112D01*
X375824Y873096D01*
X374808Y872080D01*
Y871064D01*
X369946Y836738D02*
X370962D01*
X371978Y837754D01*
X372994Y836738D01*
X374010D01*
Y837754D01*
X372994Y838770D01*
X374010Y839786D01*
Y840802D01*
X372994D01*
X371978Y839786D01*
X370962Y840802D01*
X369946D01*
Y839786D01*
X370962Y838770D01*
X369946Y837754D01*
Y836738D01*
X410368Y789784D02*
X411384D01*
X412400Y790800D01*
X413416Y789784D01*
X414432D01*
Y790800D01*
X413416Y791816D01*
X414432Y792832D01*
Y793848D01*
X413416D01*
X412400Y792832D01*
X411384Y793848D01*
X410368D01*
Y792832D01*
X411384Y791816D01*
X410368Y790800D01*
Y789784D01*
X342614Y771560D02*
X343630D01*
X344646Y772576D01*
X345662Y771560D01*
X346678D01*
Y772576D01*
X345662Y773592D01*
X346678Y774608D01*
Y775624D01*
X345662D01*
X344646Y774608D01*
X343630Y775624D01*
X342614D01*
Y774608D01*
X343630Y773592D01*
X342614Y772576D01*
Y771560D01*
X448468Y792070D02*
X449484D01*
X450500Y793086D01*
X451516Y792070D01*
X452532D01*
Y793086D01*
X451516Y794102D01*
X452532Y795118D01*
Y796134D01*
X451516D01*
X450500Y795118D01*
X449484Y796134D01*
X448468D01*
Y795118D01*
X449484Y794102D01*
X448468Y793086D01*
Y792070D01*
X438308D02*
X439324D01*
X440340Y793086D01*
X441356Y792070D01*
X442372D01*
Y793086D01*
X441356Y794102D01*
X442372Y795118D01*
Y796134D01*
X441356D01*
X440340Y795118D01*
X439324Y796134D01*
X438308D01*
Y795118D01*
X439324Y794102D01*
X438308Y793086D01*
Y792070D01*
X358436Y778238D02*
X359452D01*
X360468Y779254D01*
X361484Y778238D01*
X362500D01*
Y779254D01*
X361484Y780270D01*
X362500Y781286D01*
Y782302D01*
X361484D01*
X360468Y781286D01*
X359452Y782302D01*
X358436D01*
Y781286D01*
X359452Y780270D01*
X358436Y779254D01*
Y778238D01*
X353158Y790606D02*
X354174D01*
X355190Y791622D01*
X356206Y790606D01*
X357222D01*
Y791622D01*
X356206Y792638D01*
X357222Y793654D01*
Y794670D01*
X356206D01*
X355190Y793654D01*
X354174Y794670D01*
X353158D01*
Y793654D01*
X354174Y792638D01*
X353158Y791622D01*
Y790606D01*
X367188Y799182D02*
X368204D01*
X369220Y800198D01*
X370236Y799182D01*
X371252D01*
Y800198D01*
X370236Y801214D01*
X371252Y802230D01*
Y803246D01*
X370236D01*
X369220Y802230D01*
X368204Y803246D01*
X367188D01*
Y802230D01*
X368204Y801214D01*
X367188Y800198D01*
Y799182D01*
X364750Y855672D02*
X365766D01*
X366782Y856688D01*
X367798Y855672D01*
X368814D01*
Y856688D01*
X367798Y857704D01*
X368814Y858720D01*
Y859736D01*
X367798D01*
X366782Y858720D01*
X365766Y859736D01*
X364750D01*
Y858720D01*
X365766Y857704D01*
X364750Y856688D01*
Y855672D01*
X364902Y862936D02*
X365918D01*
X366934Y863952D01*
X367950Y862936D01*
X368966D01*
Y863952D01*
X367950Y864968D01*
X368966Y865984D01*
Y867000D01*
X367950D01*
X366934Y865984D01*
X365918Y867000D01*
X364902D01*
Y865984D01*
X365918Y864968D01*
X364902Y863952D01*
Y862936D01*
X461676Y891384D02*
X462692D01*
X463708Y892400D01*
X464724Y891384D01*
X465740D01*
Y892400D01*
X464724Y893416D01*
X465740Y894432D01*
Y895448D01*
X464724D01*
X463708Y894432D01*
X462692Y895448D01*
X461676D01*
Y894432D01*
X462692Y893416D01*
X461676Y892400D01*
Y891384D01*
X468026Y897734D02*
X469042D01*
X470058Y898750D01*
X471074Y897734D01*
X472090D01*
Y898750D01*
X471074Y899766D01*
X472090Y900782D01*
Y901798D01*
X471074D01*
X470058Y900782D01*
X469042Y901798D01*
X468026D01*
Y900782D01*
X469042Y899766D01*
X468026Y898750D01*
Y897734D01*
X659778Y816108D02*
X660794D01*
X661810Y817124D01*
X662826Y816108D01*
X663842D01*
Y817124D01*
X662826Y818140D01*
X663842Y819156D01*
Y820172D01*
X662826D01*
X661810Y819156D01*
X660794Y820172D01*
X659778D01*
Y819156D01*
X660794Y818140D01*
X659778Y817124D01*
Y816108D01*
X633058Y844738D02*
X634074D01*
X635090Y845754D01*
X636106Y844738D01*
X637122D01*
Y845754D01*
X636106Y846770D01*
X637122Y847786D01*
Y848802D01*
X636106D01*
X635090Y847786D01*
X634074Y848802D01*
X633058D01*
Y847786D01*
X634074Y846770D01*
X633058Y845754D01*
Y844738D01*
X644908Y887988D02*
X645924D01*
X646940Y889004D01*
X647956Y887988D01*
X648972D01*
Y889004D01*
X647956Y890020D01*
X648972Y891036D01*
Y892052D01*
X647956D01*
X646940Y891036D01*
X645924Y892052D01*
X644908D01*
Y891036D01*
X645924Y890020D01*
X644908Y889004D01*
Y887988D01*
X659158Y834988D02*
X660174D01*
X661190Y836004D01*
X662206Y834988D01*
X663222D01*
Y836004D01*
X662206Y837020D01*
X663222Y838036D01*
Y839052D01*
X662206D01*
X661190Y838036D01*
X660174Y839052D01*
X659158D01*
Y838036D01*
X660174Y837020D01*
X659158Y836004D01*
Y834988D01*
X635909Y773737D02*
X636925D01*
X637941Y774753D01*
X638957Y773737D01*
X639973D01*
Y774753D01*
X638957Y775769D01*
X639973Y776785D01*
Y777801D01*
X638957D01*
X637941Y776785D01*
X636925Y777801D01*
X635909D01*
Y776785D01*
X636925Y775769D01*
X635909Y774753D01*
Y773737D01*
X660608Y826288D02*
X661624D01*
X662640Y827304D01*
X663656Y826288D01*
X664672D01*
Y827304D01*
X663656Y828320D01*
X664672Y829336D01*
Y830352D01*
X663656D01*
X662640Y829336D01*
X661624Y830352D01*
X660608D01*
Y829336D01*
X661624Y828320D01*
X660608Y827304D01*
Y826288D01*
X584908Y866738D02*
X585924D01*
X586940Y867754D01*
X587956Y866738D01*
X588972D01*
Y867754D01*
X587956Y868770D01*
X588972Y869786D01*
Y870802D01*
X587956D01*
X586940Y869786D01*
X585924Y870802D01*
X584908D01*
Y869786D01*
X585924Y868770D01*
X584908Y867754D01*
Y866738D01*
X577658D02*
X578674D01*
X579690Y867754D01*
X580706Y866738D01*
X581722D01*
Y867754D01*
X580706Y868770D01*
X581722Y869786D01*
Y870802D01*
X580706D01*
X579690Y869786D01*
X578674Y870802D01*
X577658D01*
Y869786D01*
X578674Y868770D01*
X577658Y867754D01*
Y866738D01*
X584908Y859738D02*
X585924D01*
X586940Y860754D01*
X587956Y859738D01*
X588972D01*
Y860754D01*
X587956Y861770D01*
X588972Y862786D01*
Y863802D01*
X587956D01*
X586940Y862786D01*
X585924Y863802D01*
X584908D01*
Y862786D01*
X585924Y861770D01*
X584908Y860754D01*
Y859738D01*
X577658D02*
X578674D01*
X579690Y860754D01*
X580706Y859738D01*
X581722D01*
Y860754D01*
X580706Y861770D01*
X581722Y862786D01*
Y863802D01*
X580706D01*
X579690Y862786D01*
X578674Y863802D01*
X577658D01*
Y862786D01*
X578674Y861770D01*
X577658Y860754D01*
Y859738D01*
X557408Y825988D02*
X558424D01*
X559440Y827004D01*
X560456Y825988D01*
X561472D01*
Y827004D01*
X560456Y828020D01*
X561472Y829036D01*
Y830052D01*
X560456D01*
X559440Y829036D01*
X558424Y830052D01*
X557408D01*
Y829036D01*
X558424Y828020D01*
X557408Y827004D01*
Y825988D01*
Y837988D02*
X558424D01*
X559440Y839004D01*
X560456Y837988D01*
X561472D01*
Y839004D01*
X560456Y840020D01*
X561472Y841036D01*
Y842052D01*
X560456D01*
X559440Y841036D01*
X558424Y842052D01*
X557408D01*
Y841036D01*
X558424Y840020D01*
X557408Y839004D01*
Y837988D01*
Y849988D02*
X558424D01*
X559440Y851004D01*
X560456Y849988D01*
X561472D01*
Y851004D01*
X560456Y852020D01*
X561472Y853036D01*
Y854052D01*
X560456D01*
X559440Y853036D01*
X558424Y854052D01*
X557408D01*
Y853036D01*
X558424Y852020D01*
X557408Y851004D01*
Y849988D01*
X545908Y837988D02*
X546924D01*
X547940Y839004D01*
X548956Y837988D01*
X549972D01*
Y839004D01*
X548956Y840020D01*
X549972Y841036D01*
Y842052D01*
X548956D01*
X547940Y841036D01*
X546924Y842052D01*
X545908D01*
Y841036D01*
X546924Y840020D01*
X545908Y839004D01*
Y837988D01*
X568408D02*
X569424D01*
X570440Y839004D01*
X571456Y837988D01*
X572472D01*
Y839004D01*
X571456Y840020D01*
X572472Y841036D01*
Y842052D01*
X571456D01*
X570440Y841036D01*
X569424Y842052D01*
X568408D01*
Y841036D01*
X569424Y840020D01*
X568408Y839004D01*
Y837988D01*
Y825988D02*
X569424D01*
X570440Y827004D01*
X571456Y825988D01*
X572472D01*
Y827004D01*
X571456Y828020D01*
X572472Y829036D01*
Y830052D01*
X571456D01*
X570440Y829036D01*
X569424Y830052D01*
X568408D01*
Y829036D01*
X569424Y828020D01*
X568408Y827004D01*
Y825988D01*
X545908D02*
X546924D01*
X547940Y827004D01*
X548956Y825988D01*
X549972D01*
Y827004D01*
X548956Y828020D01*
X549972Y829036D01*
Y830052D01*
X548956D01*
X547940Y829036D01*
X546924Y830052D01*
X545908D01*
Y829036D01*
X546924Y828020D01*
X545908Y827004D01*
Y825988D01*
X568408Y849988D02*
X569424D01*
X570440Y851004D01*
X571456Y849988D01*
X572472D01*
Y851004D01*
X571456Y852020D01*
X572472Y853036D01*
Y854052D01*
X571456D01*
X570440Y853036D01*
X569424Y854052D01*
X568408D01*
Y853036D01*
X569424Y852020D01*
X568408Y851004D01*
Y849988D01*
X545908D02*
X546924D01*
X547940Y851004D01*
X548956Y849988D01*
X549972D01*
Y851004D01*
X548956Y852020D01*
X549972Y853036D01*
Y854052D01*
X548956D01*
X547940Y853036D01*
X546924Y854052D01*
X545908D01*
Y853036D01*
X546924Y852020D01*
X545908Y851004D01*
Y849988D01*
X585158Y815238D02*
X586174D01*
X587190Y816254D01*
X588206Y815238D01*
X589222D01*
Y816254D01*
X588206Y817270D01*
X589222Y818286D01*
Y819302D01*
X588206D01*
X587190Y818286D01*
X586174Y819302D01*
X585158D01*
Y818286D01*
X586174Y817270D01*
X585158Y816254D01*
Y815238D01*
Y808488D02*
X586174D01*
X587190Y809504D01*
X588206Y808488D01*
X589222D01*
Y809504D01*
X588206Y810520D01*
X589222Y811536D01*
Y812552D01*
X588206D01*
X587190Y811536D01*
X586174Y812552D01*
X585158D01*
Y811536D01*
X586174Y810520D01*
X585158Y809504D01*
Y808488D01*
X572158Y801488D02*
X573174D01*
X574190Y802504D01*
X575206Y801488D01*
X576222D01*
Y802504D01*
X575206Y803520D01*
X576222Y804536D01*
Y805552D01*
X575206D01*
X574190Y804536D01*
X573174Y805552D01*
X572158D01*
Y804536D01*
X573174Y803520D01*
X572158Y802504D01*
Y801488D01*
X536945Y814276D02*
X537962D01*
X538978Y815292D01*
X539994Y814276D01*
X541009D01*
Y815292D01*
X539994Y816308D01*
X541009Y817324D01*
Y818339D01*
X539994D01*
X538978Y817324D01*
X537962Y818339D01*
X536945D01*
Y817324D01*
X537962Y816308D01*
X536945Y815292D01*
Y814276D01*
X525658Y838238D02*
X526674D01*
X527690Y839254D01*
X528706Y838238D01*
X529722D01*
Y839254D01*
X528706Y840270D01*
X529722Y841286D01*
Y842302D01*
X528706D01*
X527690Y841286D01*
X526674Y842302D01*
X525658D01*
Y841286D01*
X526674Y840270D01*
X525658Y839254D01*
Y838238D01*
X616408Y821238D02*
X617424D01*
X618440Y822254D01*
X619456Y821238D01*
X620472D01*
Y822254D01*
X619456Y823270D01*
X620472Y824286D01*
Y825302D01*
X619456D01*
X618440Y824286D01*
X617424Y825302D01*
X616408D01*
Y824286D01*
X617424Y823270D01*
X616408Y822254D01*
Y821238D01*
X609408Y823738D02*
X610424D01*
X611440Y824754D01*
X612456Y823738D01*
X613472D01*
Y824754D01*
X612456Y825770D01*
X613472Y826786D01*
Y827802D01*
X612456D01*
X611440Y826786D01*
X610424Y827802D01*
X609408D01*
Y826786D01*
X610424Y825770D01*
X609408Y824754D01*
Y823738D01*
X601408Y845488D02*
X602424D01*
X603440Y846504D01*
X604456Y845488D01*
X605472D01*
Y846504D01*
X604456Y847520D01*
X605472Y848536D01*
Y849552D01*
X604456D01*
X603440Y848536D01*
X602424Y849552D01*
X601408D01*
Y848536D01*
X602424Y847520D01*
X601408Y846504D01*
Y845488D01*
D79*
X281486Y805862D02*
G03*
X281486Y805862I-2032J0D01*
G01*
Y878862D02*
G03*
X281486Y878862I-2032J0D01*
G01*
M02*
