G04*
G04 #@! TF.GenerationSoftware,Altium Limited,Altium Designer,20.1.12 (249)*
G04*
G04 Layer_Physical_Order=4*
G04 Layer_Color=16711680*
%FSLAX44Y44*%
%MOMM*%
G71*
G04*
G04 #@! TF.SameCoordinates,6BC81075-F8A6-44B3-9B4B-18916E9C74BF*
G04*
G04*
G04 #@! TF.FilePolarity,Positive*
G04*
G01*
G75*
%ADD12C,0.1000*%
%ADD13C,0.1524*%
%ADD15R,0.5000X0.5000*%
%ADD20R,0.5500X0.5500*%
%ADD21R,0.5000X0.5000*%
%ADD24R,0.9500X1.3500*%
%ADD46C,0.2540*%
%ADD48C,0.3810*%
%ADD49R,1.5000X1.5000*%
%ADD50C,1.5000*%
%ADD51O,2.7000X1.7000*%
%ADD52O,1.4000X1.0000*%
%ADD53C,0.5080*%
%ADD61R,1.3500X0.9500*%
%ADD62R,0.5500X0.5500*%
%ADD63R,0.9144X0.9144*%
%ADD64R,1.2700X0.9144*%
%ADD65R,1.0000X1.8000*%
%ADD66R,0.7500X0.9000*%
%ADD67R,1.0500X0.5500*%
%ADD68C,0.5080*%
G36*
X365664Y841600D02*
X365664Y839314D01*
X370744Y834234D01*
X373538Y834234D01*
X374808Y832964D01*
X379634D01*
X381666Y830932D01*
Y827884D01*
X380142Y826360D01*
X368712D01*
X364140Y830932D01*
X351694D01*
X349154Y833472D01*
Y841854D01*
X351186Y843886D01*
X363378D01*
X365664Y841600D01*
D02*
G37*
G36*
X367696Y823566D02*
X381920D01*
X383698Y821788D01*
Y808326D01*
X381158Y805786D01*
X367188D01*
X365918Y804516D01*
X350678D01*
X348900Y806294D01*
Y827122D01*
X350170Y828392D01*
X362870D01*
X367696Y823566D01*
D02*
G37*
G36*
X439070Y891130D02*
Y876398D01*
X435006Y872334D01*
X427132D01*
X422306Y877160D01*
Y880567D01*
X422430Y880932D01*
X422534Y881454D01*
X422569Y881986D01*
X422534Y882518D01*
X422430Y883040D01*
X422306Y883405D01*
Y889860D01*
X425862Y893416D01*
X436784D01*
X439070Y891130D01*
D02*
G37*
G36*
X455580Y890876D02*
Y872842D01*
X453548Y870810D01*
X443642D01*
X440848Y873604D01*
Y890114D01*
X443134Y892400D01*
X454056D01*
X455580Y890876D01*
D02*
G37*
G36*
X492156Y881224D02*
Y871826D01*
X490124Y869794D01*
X487076D01*
X484790Y872080D01*
Y880462D01*
X487330Y883002D01*
X490378D01*
X492156Y881224D01*
D02*
G37*
G36*
X556190Y870270D02*
X556190Y857020D01*
X555440Y856270D01*
X531940D01*
X530440Y857770D01*
Y869020D01*
X532690Y871270D01*
X555190D01*
X556190Y870270D01*
D02*
G37*
G36*
X589690Y869770D02*
Y845270D01*
X587690Y843270D01*
X575690D01*
X574697Y844263D01*
Y855300D01*
X574721Y855544D01*
Y855551D01*
X576940Y857770D01*
Y870020D01*
X578440Y871520D01*
X587940D01*
X589690Y869770D01*
D02*
G37*
G36*
X573190Y869270D02*
X573190Y855544D01*
X573166D01*
Y842996D01*
X573190D01*
Y842770D01*
X576940Y839020D01*
X588190Y839020D01*
X589690Y837520D01*
Y829020D01*
X588690Y828020D01*
X574190D01*
X567940Y821770D01*
Y809770D01*
X566940Y808770D01*
X553940D01*
X543940Y818770D01*
Y852520D01*
X546159Y854739D01*
X555440D01*
X555739Y854768D01*
X555745Y854770D01*
X557440D01*
X561190Y858520D01*
Y869520D01*
X562440Y870770D01*
X571690D01*
X573190Y869270D01*
D02*
G37*
G36*
X589940Y821020D02*
Y809520D01*
X588190Y807770D01*
X572690D01*
X571190Y809270D01*
Y822270D01*
X572190Y823270D01*
X587690D01*
X589940Y821020D01*
D02*
G37*
D12*
X260000Y740000D02*
Y933040D01*
X696880Y740000D02*
Y933040D01*
X260000Y740000D02*
X696880D01*
X260000Y933040D02*
X696880D01*
D13*
X373690Y785240D02*
Y797810D01*
X380892Y800484D02*
X381190Y800782D01*
X376364Y800484D02*
X380892D01*
X373690Y797810D02*
X376364Y800484D01*
X398690Y785240D02*
Y797550D01*
X391190Y800782D02*
X391748Y800224D01*
X396016D01*
X398690Y797550D01*
X481742Y780270D02*
X487468D01*
X489806Y782608D01*
Y787244D01*
X490378Y787816D01*
X503586D01*
Y795816D02*
Y805532D01*
X509238D02*
X512032Y802738D01*
X503586Y805532D02*
X509238D01*
X437546Y842552D02*
Y850808D01*
X445738D01*
X533940Y859808D02*
X535440Y858308D01*
Y850020D02*
Y858308D01*
X533940Y859808D02*
Y860770D01*
X341258Y853770D02*
X345366D01*
X337978Y850490D02*
X341258Y853770D01*
X332136Y850490D02*
X337978D01*
X330401Y848755D02*
X332136Y850490D01*
X330401Y842809D02*
Y848755D01*
X329954Y842362D02*
X330401Y842809D01*
X510698Y898242D02*
X523934D01*
X494696Y882240D02*
X510698Y898242D01*
X494696Y854300D02*
Y882240D01*
X487838Y847442D02*
X494696Y854300D01*
X478440Y847442D02*
X487838D01*
X513492Y893416D02*
X535336D01*
X479456Y829916D02*
X497998Y848458D01*
Y877922D02*
X513492Y893416D01*
X497998Y848458D02*
Y877922D01*
X528864Y832270D02*
X535440D01*
X521620Y826106D02*
X554640Y793086D01*
X521620Y826106D02*
Y850744D01*
X514254Y827630D02*
Y834996D01*
X503840Y833472D02*
X521620Y815692D01*
X503840Y833472D02*
Y858872D01*
X345090Y792832D02*
Y841600D01*
X351948Y848458D01*
Y866271D01*
X358773Y873096D01*
X376840D01*
X521620Y850744D02*
X524160Y853284D01*
X514254Y827630D02*
X530764Y811120D01*
X521620Y815438D02*
X525684Y811374D01*
X521620Y815438D02*
Y815692D01*
X521874Y815438D01*
X525684Y775306D02*
Y811374D01*
X530764Y801468D02*
Y811120D01*
X529240Y760320D02*
Y771750D01*
X525684Y775306D02*
X529240Y771750D01*
X554640Y760320D02*
Y793086D01*
X387254Y749906D02*
X459136D01*
X453294Y810358D02*
X454041D01*
X466756Y797643D01*
Y757526D02*
Y797643D01*
X459136Y749906D02*
X466756Y757526D01*
X462692Y815184D02*
X473360Y804516D01*
X451262Y815184D02*
X462692D01*
X448722Y817724D02*
X451262Y815184D01*
X448722Y817724D02*
Y826868D01*
X445674Y831948D02*
X446182Y832456D01*
X445674Y809588D02*
X449857Y805405D01*
X448722Y826868D02*
X452024Y830170D01*
X464470Y820010D02*
X476408Y808072D01*
X445674Y809588D02*
Y831948D01*
X453548Y820010D02*
X464470D01*
X452024Y830170D02*
Y846426D01*
X440998Y809954D02*
Y816050D01*
X440086Y816962D02*
X440998Y816050D01*
X440086Y816962D02*
Y822042D01*
X462692Y769972D02*
Y797396D01*
X449857Y805405D02*
X454683D01*
X462692Y797396D01*
X455834Y799944D02*
X459390Y796388D01*
X440998Y809954D02*
X448595Y802357D01*
X453414D01*
X455826Y799944D02*
X455834D01*
X453414Y802357D02*
X455826Y799944D01*
X452151Y799309D02*
X456342Y795118D01*
X442372Y801468D02*
X442884D01*
X445043Y799309D01*
X452151D01*
X473360Y775814D02*
Y804516D01*
Y775814D02*
X478440Y770734D01*
Y760320D02*
Y770734D01*
X481742Y772512D02*
X491648D01*
X476408Y777846D02*
Y808072D01*
Y777846D02*
X481742Y772512D01*
X452024Y846426D02*
X454818Y849220D01*
X459390Y776322D02*
Y796388D01*
X456342Y778100D02*
Y795118D01*
X419766Y829154D02*
X420020Y829408D01*
X420274D01*
X407320Y829154D02*
X419766D01*
X412881Y871572D02*
X421544D01*
X356012Y890368D02*
Y900020D01*
X355758Y900274D02*
X356012Y900020D01*
X365410Y890876D02*
Y915267D01*
X376840Y898242D02*
X383952Y891130D01*
X393350D02*
X409860Y874620D01*
Y874593D02*
Y874620D01*
Y874593D02*
X412881Y871572D01*
X383952Y891130D02*
X393350D01*
X402240Y889038D02*
Y912720D01*
Y889038D02*
X414686Y876592D01*
X418496Y903576D02*
X427640Y912720D01*
X418496Y881986D02*
Y903576D01*
X411956Y808516D02*
X412940Y807532D01*
X411956Y808516D02*
Y813152D01*
X376840Y898242D02*
Y912720D01*
X327564Y775306D02*
X345090Y792832D01*
X566578Y792070D02*
X594010D01*
X563022Y795626D02*
X566578Y792070D01*
X563062Y802444D02*
X570388Y795118D01*
X562514Y802444D02*
X563062D01*
X570388Y795118D02*
X604678D01*
X491648Y772512D02*
X503840Y760320D01*
X453040D02*
X462692Y769972D01*
X594010Y792070D02*
X605440Y780640D01*
Y760320D02*
Y780640D01*
X604678Y795118D02*
X624027Y775769D01*
X637941D01*
X627030Y781656D02*
X639476D01*
X638690Y790776D02*
Y811802D01*
X634650Y786736D02*
X638690Y790776D01*
X665384Y784770D02*
X680690D01*
X639476Y781656D02*
X645572Y787752D01*
X651503D02*
X651729Y787526D01*
X645572Y787752D02*
X651503D01*
X453548Y770480D02*
X459390Y776322D01*
X447198Y770480D02*
X453548D01*
X453040Y774798D02*
X456342Y778100D01*
X443134Y774798D02*
X453040D01*
X438442Y770106D02*
X443134Y774798D01*
X412026Y770106D02*
X438442D01*
X402240Y760320D02*
X412026Y770106D01*
X437038Y760320D02*
X447198Y770480D01*
X427640Y760320D02*
X437038D01*
X376840D02*
X387254Y749906D01*
X656555Y785527D02*
Y822235D01*
X641762Y770734D02*
X656555Y785527D01*
X641762Y749398D02*
Y770734D01*
X638714Y746350D02*
X641762Y749398D01*
X376078Y746350D02*
X638714D01*
X366680Y755748D02*
X376078Y746350D01*
X366680Y755748D02*
Y764638D01*
X372148Y770106D01*
X403390D02*
X412400Y779116D01*
X372148Y770106D02*
X403390D01*
X412400Y779116D02*
Y791816D01*
X300640Y760320D02*
X301913Y761593D01*
Y769213D01*
X308006Y775306D01*
X327564D01*
X361226Y915394D02*
X372522Y926690D01*
X361226Y905742D02*
Y915394D01*
X355758Y900274D02*
X361226Y905742D01*
X365410Y915267D02*
X373022Y922880D01*
X457612D01*
X463708Y916784D01*
Y893416D02*
Y916784D01*
X468654Y902132D02*
Y916156D01*
X470058Y899766D02*
Y900728D01*
X468654Y902132D02*
X470058Y900728D01*
X372522Y926690D02*
X458120D01*
X468654Y916156D01*
X643440Y816552D02*
Y843520D01*
X638690Y811802D02*
X643440Y816552D01*
X656555Y822235D02*
X662640Y828320D01*
X669240D02*
X670440Y829520D01*
X662640Y828320D02*
X669240D01*
X640190Y846770D02*
X643440Y843520D01*
X635090Y846770D02*
X640190D01*
X680690Y784770D02*
X689440Y793520D01*
Y827770D01*
X677190Y840020D02*
X689440Y827770D01*
X665690Y840020D02*
X677190D01*
X646940Y858770D02*
X665690Y840020D01*
X646940Y858770D02*
Y890020D01*
X535336Y893416D02*
X554640Y912720D01*
X599690Y812020D02*
Y827270D01*
X574190Y803520D02*
X591190D01*
X599690Y812020D01*
X610940Y838520D02*
X633440D01*
X599690Y827270D02*
X610940Y838520D01*
X538903Y816308D02*
X538978D01*
X535440Y819770D02*
X538903Y816308D01*
X535440Y819770D02*
Y824270D01*
X527690Y840270D02*
X533690D01*
X535440Y842020D01*
X631347Y890114D02*
Y897731D01*
X627538Y893923D01*
X632616D01*
D15*
X437546Y858808D02*
D03*
Y850808D02*
D03*
Y842552D02*
D03*
Y834552D02*
D03*
X428402Y828582D02*
D03*
Y820582D02*
D03*
X503586Y795816D02*
D03*
Y787816D02*
D03*
X535440Y832270D02*
D03*
Y824270D02*
D03*
X670440Y829520D02*
D03*
Y821520D02*
D03*
D20*
X463190Y867520D02*
D03*
X471190D02*
D03*
X352646Y780386D02*
D03*
X344646D02*
D03*
X387190Y837282D02*
D03*
X379190D02*
D03*
X384396Y854046D02*
D03*
X376396D02*
D03*
X400398Y827884D02*
D03*
X392398D02*
D03*
X449928Y786228D02*
D03*
X441928D02*
D03*
X489806Y787244D02*
D03*
X481806D02*
D03*
X520032Y802738D02*
D03*
X512032D02*
D03*
D21*
X387190Y845664D02*
D03*
X379190D02*
D03*
X419956Y813152D02*
D03*
X411956D02*
D03*
X436212Y811882D02*
D03*
X428212D02*
D03*
D24*
X393730Y814676D02*
D03*
X377730D02*
D03*
X448594Y885034D02*
D03*
X432594D02*
D03*
X577440Y815770D02*
D03*
X561440D02*
D03*
X566690Y863270D02*
D03*
X550690D02*
D03*
D46*
X463190Y867520D02*
Y874084D01*
X464678Y875572D02*
X476852D01*
X463190Y874084D02*
X464678Y875572D01*
X476852D02*
X477170Y875890D01*
X477237Y868770D02*
X477924D01*
X476039Y867572D02*
X477237Y868770D01*
X471190Y867572D02*
X476039D01*
X519842Y804580D02*
Y809342D01*
Y804580D02*
X520858Y803564D01*
X520032Y802738D02*
X520858Y803564D01*
X437228Y858808D02*
X437546D01*
X481742Y793848D02*
X481806Y793784D01*
Y787244D02*
Y793784D01*
X481742Y793848D02*
Y794864D01*
X437546Y829154D02*
Y834552D01*
X436212Y806484D02*
Y811882D01*
X428212Y805342D02*
Y811882D01*
X424084Y801214D02*
X428148Y805278D01*
X406014Y801214D02*
X424084D01*
X403256Y803500D02*
X403728D01*
X406014Y801214D01*
X421988Y819895D02*
Y820582D01*
X419956Y813152D02*
X420592Y813788D01*
Y818499D01*
X421988Y819895D01*
Y820582D02*
X428402D01*
X393730Y814676D02*
X402240D01*
X400398Y827884D02*
Y834044D01*
X386492Y827884D02*
X392398D01*
X387190Y837282D02*
X393604D01*
X378250Y838222D02*
X379190Y837282D01*
X373213Y838222D02*
X378250D01*
X372665Y838770D02*
X373213Y838222D01*
X371978Y838770D02*
X372665D01*
X392080Y864826D02*
Y872842D01*
X391714Y864460D02*
X392080Y864826D01*
X384396Y854046D02*
X390048D01*
X374916Y852566D02*
X376396Y854046D01*
X373582Y852566D02*
X374916D01*
X367442Y846426D02*
X373582Y852566D01*
X368734Y800728D02*
X369220Y801214D01*
X362108Y800008D02*
X362828Y800728D01*
X368734D01*
X355190Y792638D02*
Y793325D01*
X353726Y800008D02*
X354575Y799159D01*
Y793940D02*
Y799159D01*
Y793940D02*
X355190Y793325D01*
X362108Y808008D02*
X362870Y808770D01*
X353726Y808008D02*
X354820Y809102D01*
X366436Y857358D02*
X366782Y857704D01*
X359568Y857158D02*
X359768Y857358D01*
X366436D01*
X366744Y865158D02*
X366934Y864968D01*
X359568Y865158D02*
X366744D01*
X377714Y855364D02*
Y864460D01*
X376396Y854046D02*
X377714Y855364D01*
X450500Y793415D02*
Y794102D01*
X449928Y786228D02*
Y792843D01*
X450500Y793415D01*
X440340D02*
Y794102D01*
X441928Y786228D02*
Y791827D01*
X440340Y793415D02*
X441928Y791827D01*
X379190Y837282D02*
Y845664D01*
X378336Y844810D02*
X379190Y845664D01*
X344646Y773592D02*
Y780386D01*
X360352D02*
X360468Y780270D01*
X352646Y780386D02*
X360352D01*
D48*
X426116Y839695D02*
X428402Y837409D01*
Y828582D02*
Y837409D01*
X404472Y847769D02*
X405796Y849093D01*
X395963Y847769D02*
X404472D01*
X393858Y845664D02*
X395963Y847769D01*
X387190Y845664D02*
X393858D01*
X661810Y818140D02*
X665084Y821414D01*
X670334D02*
X670440Y821520D01*
X665084Y821414D02*
X670334D01*
X618440Y823270D02*
X622440D01*
X624690Y825520D01*
X633440D01*
X617095Y831175D02*
X617940Y832020D01*
X614095Y831175D02*
X617095D01*
X611683Y828763D02*
X614095Y831175D01*
X611440Y825770D02*
X611683Y826013D01*
Y828763D01*
D49*
X656240Y912720D02*
D03*
D50*
X630840D02*
D03*
X605440D02*
D03*
X656240Y760320D02*
D03*
X580040Y912720D02*
D03*
X529240D02*
D03*
X554640D02*
D03*
X503840D02*
D03*
X478440D02*
D03*
X605440Y760320D02*
D03*
X630840D02*
D03*
X580040D02*
D03*
X478440D02*
D03*
X503840D02*
D03*
X453040D02*
D03*
X554640D02*
D03*
X529240D02*
D03*
X427640Y912720D02*
D03*
X453040D02*
D03*
X427640Y760320D02*
D03*
X300640Y912720D02*
D03*
X326040D02*
D03*
X376840D02*
D03*
X402240D02*
D03*
X351440D02*
D03*
Y760320D02*
D03*
X402240D02*
D03*
X376840D02*
D03*
X326040D02*
D03*
X300640D02*
D03*
D51*
X279454Y878862D02*
D03*
Y805862D02*
D03*
D52*
X331954Y826362D02*
D03*
Y842362D02*
D03*
Y858362D02*
D03*
X315954Y850362D02*
D03*
Y834362D02*
D03*
D53*
X452024Y865666D02*
D03*
X518826Y860770D02*
D03*
X488600Y864714D02*
D03*
X674139Y777719D02*
D03*
X477170Y875890D02*
D03*
X477924Y868770D02*
D03*
X381190Y800782D02*
D03*
X391190D02*
D03*
X481742Y780270D02*
D03*
X503586Y805532D02*
D03*
X445738Y850808D02*
D03*
X540440Y860770D02*
D03*
X533940D02*
D03*
Y868020D02*
D03*
X540440D02*
D03*
X345366Y853770D02*
D03*
X518826Y884526D02*
D03*
X512222D02*
D03*
X488600Y879446D02*
D03*
Y872588D02*
D03*
X327310Y788514D02*
D03*
X321214D02*
D03*
X311054D02*
D03*
X304958Y788768D02*
D03*
X526446Y833726D02*
D03*
X514254Y834996D02*
D03*
X503840Y858872D02*
D03*
X523934Y898242D02*
D03*
X479456Y829916D02*
D03*
X478440Y847442D02*
D03*
X524160Y853284D02*
D03*
X527716Y881986D02*
D03*
X534320Y888336D02*
D03*
X527716Y874874D02*
D03*
X506380Y821026D02*
D03*
X483774Y824074D02*
D03*
X530764Y801468D02*
D03*
X519842Y809342D02*
D03*
X444658Y873858D02*
D03*
X452024D02*
D03*
X431450Y875128D02*
D03*
X424846Y878430D02*
D03*
X453294Y810358D02*
D03*
X453548Y820010D02*
D03*
X446182Y832456D02*
D03*
X481742Y794864D02*
D03*
X454818Y849220D02*
D03*
X440086Y822042D02*
D03*
X442372Y801468D02*
D03*
X420274Y829408D02*
D03*
X407320Y829154D02*
D03*
X421544Y871572D02*
D03*
X437546Y829154D02*
D03*
X356012Y890368D02*
D03*
X365156Y890876D02*
D03*
X414686Y876592D02*
D03*
X418496Y881986D02*
D03*
X436212Y806484D02*
D03*
X412940Y807532D02*
D03*
X403256Y803500D02*
D03*
X421988Y820582D02*
D03*
X402240Y814676D02*
D03*
X400398Y834044D02*
D03*
X386492Y827884D02*
D03*
X368966Y808834D02*
D03*
X378782Y829916D02*
D03*
X371670Y830170D02*
D03*
X393604Y837282D02*
D03*
X392080Y872842D02*
D03*
X390048Y854046D02*
D03*
X366680Y814930D02*
D03*
X563022Y795626D02*
D03*
X562514Y802444D02*
D03*
X627030Y781656D02*
D03*
X634650Y786736D02*
D03*
X651729Y787526D02*
D03*
X665384Y784770D02*
D03*
X376840Y873096D02*
D03*
X367442Y846426D02*
D03*
X371978Y838770D02*
D03*
X412400Y791816D02*
D03*
X344646Y773592D02*
D03*
X450500Y794102D02*
D03*
X440340D02*
D03*
X360468Y780270D02*
D03*
X355190Y792638D02*
D03*
X369220Y801214D02*
D03*
X366782Y857704D02*
D03*
X366934Y864968D02*
D03*
X463708Y893416D02*
D03*
X470058Y899766D02*
D03*
X661810Y818140D02*
D03*
X635090Y846770D02*
D03*
X646940Y890020D02*
D03*
X661190Y837020D02*
D03*
X637941Y775769D02*
D03*
X662640Y828320D02*
D03*
X586940Y868770D02*
D03*
X579690D02*
D03*
X586940Y861770D02*
D03*
X579690D02*
D03*
X559440Y828020D02*
D03*
Y840020D02*
D03*
Y852020D02*
D03*
X547940Y840020D02*
D03*
X570440D02*
D03*
Y828020D02*
D03*
X547940D02*
D03*
X570440Y852020D02*
D03*
X547940D02*
D03*
X587190Y817270D02*
D03*
Y810520D02*
D03*
X574190Y803520D02*
D03*
X538978Y816308D02*
D03*
X527690Y840270D02*
D03*
X618440Y823270D02*
D03*
X611440Y825770D02*
D03*
X603440Y847520D02*
D03*
D61*
X357028Y837916D02*
D03*
Y821916D02*
D03*
X581440Y849270D02*
D03*
Y833270D02*
D03*
D62*
X359568Y865158D02*
D03*
Y857158D02*
D03*
X353726Y808008D02*
D03*
Y800008D02*
D03*
X362108Y808008D02*
D03*
Y800008D02*
D03*
X535440Y850020D02*
D03*
Y842020D02*
D03*
D63*
X426116Y858745D02*
D03*
Y839695D02*
D03*
D64*
X405796Y849093D02*
D03*
D65*
X398690Y785240D02*
D03*
X373690D02*
D03*
D66*
X391714Y864460D02*
D03*
X377714D02*
D03*
D67*
X633440Y838520D02*
D03*
Y825520D02*
D03*
X617940Y832020D02*
D03*
D68*
X488600Y864714D02*
Y872588D01*
X482694Y858808D02*
X488600Y864714D01*
X437546Y858808D02*
X482694D01*
X329954Y858362D02*
Y872946D01*
X338994Y881986D01*
X393096D01*
X437228Y858808D02*
X437292Y858872D01*
X437165Y858745D02*
X437228Y858808D01*
X426116Y858745D02*
X437165D01*
X416337D02*
X426116D01*
X393096Y881986D02*
X416337Y858745D01*
M02*
