G04*
G04 #@! TF.GenerationSoftware,Altium Limited,Altium Designer,20.1.12 (249)*
G04*
G04 Layer_Physical_Order=3*
G04 Layer_Color=128*
%FSLAX44Y44*%
%MOMM*%
G71*
G04*
G04 #@! TF.SameCoordinates,46DEA70D-FA10-48AF-8CB5-142BA2C8E1A8*
G04*
G04*
G04 #@! TF.FilePolarity,Negative*
G04*
G01*
G75*
%ADD12C,0.1000*%
%ADD13C,0.1524*%
%ADD45C,1.0160*%
%ADD46C,0.2540*%
%ADD54C,1.5080*%
%ADD55C,2.2860*%
%ADD56C,2.8829*%
%ADD57C,1.4986*%
%ADD58O,2.4080X1.4080*%
%ADD59C,1.2080*%
%ADD60C,0.7112*%
D12*
X260000Y740000D02*
Y933040D01*
X696880Y740000D02*
Y933040D01*
X260000Y740000D02*
X696880D01*
X260000Y933040D02*
X696880D01*
D13*
X619410Y896462D02*
X620680Y897731D01*
X623219D01*
X624488Y896462D01*
Y895192D01*
X623219Y893923D01*
X621949D01*
X623219D01*
X624488Y892653D01*
Y891384D01*
X623219Y890114D01*
X620680D01*
X619410Y891384D01*
D45*
X260000Y740000D02*
Y933040D01*
X696880D01*
Y740000D02*
Y933040D01*
X260000Y740000D02*
X696880D01*
D46*
X568864Y874874D02*
X576738D01*
X562006Y868016D02*
X568864Y874874D01*
X527970Y868016D02*
X562006D01*
X523398Y872588D02*
X527970Y868016D01*
X523398Y872588D02*
Y889098D01*
X520096Y892400D02*
X523398Y889098D01*
X509936Y892400D02*
X520096D01*
X503332Y885796D02*
X509936Y892400D01*
X503332Y863698D02*
Y885796D01*
Y863698D02*
X545760Y821270D01*
X572190D01*
X612044Y776576D02*
X697642D01*
X602900Y785720D02*
X612044Y776576D01*
X602900Y785720D02*
Y833980D01*
X593248Y843632D02*
X602900Y833980D01*
X593248Y843632D02*
Y870302D01*
X588676Y874874D02*
X593248Y870302D01*
X576738Y874874D02*
X588676D01*
X568864Y740000D02*
Y774944D01*
X580690Y786770D01*
Y812770D01*
X572190Y821270D02*
X580690Y812770D01*
D54*
X656240Y912720D02*
D03*
X630840D02*
D03*
X605440D02*
D03*
X580040D02*
D03*
X529240D02*
D03*
X554640D02*
D03*
X503840D02*
D03*
X478440D02*
D03*
X605440Y760320D02*
D03*
X630840D02*
D03*
X478440D02*
D03*
X503840D02*
D03*
X453040D02*
D03*
X554640D02*
D03*
X529240D02*
D03*
X427640Y912720D02*
D03*
X453040D02*
D03*
X427640Y760320D02*
D03*
X300640Y912720D02*
D03*
X326040D02*
D03*
X376840D02*
D03*
X402240D02*
D03*
X351440D02*
D03*
Y760320D02*
D03*
X402240D02*
D03*
X376840D02*
D03*
X300640D02*
D03*
D55*
X679100Y913990D02*
D03*
Y759050D02*
D03*
X277780Y913990D02*
D03*
Y759050D02*
D03*
D56*
X672590Y860070D02*
D03*
Y802920D02*
D03*
X621790Y860070D02*
D03*
Y802920D02*
D03*
D57*
X657350Y879120D02*
D03*
X647190Y802920D02*
D03*
X637030Y879120D02*
D03*
D58*
X279454Y878862D02*
D03*
Y805862D02*
D03*
D59*
X329954Y826362D02*
D03*
Y842362D02*
D03*
Y858362D02*
D03*
X317954Y850362D02*
D03*
Y834362D02*
D03*
D60*
X477924Y868770D02*
D03*
X381190Y800782D02*
D03*
X391190D02*
D03*
X481742Y780270D02*
D03*
X503586Y805532D02*
D03*
X445738Y850808D02*
D03*
X540440Y860770D02*
D03*
X533940D02*
D03*
Y868020D02*
D03*
X540440D02*
D03*
X345366Y853770D02*
D03*
X488600Y879446D02*
D03*
Y872588D02*
D03*
X311054Y788514D02*
D03*
X304958Y788768D02*
D03*
X526446Y833726D02*
D03*
X514254Y834996D02*
D03*
X503840Y858872D02*
D03*
X523934Y898242D02*
D03*
X479456Y829916D02*
D03*
X478440Y847442D02*
D03*
X524160Y853284D02*
D03*
X506380Y821026D02*
D03*
X530764Y801468D02*
D03*
X519842Y809342D02*
D03*
X431450Y875128D02*
D03*
X424846Y878430D02*
D03*
X453294Y810358D02*
D03*
X453548Y820010D02*
D03*
X446182Y832456D02*
D03*
X481742Y794864D02*
D03*
X454818Y849220D02*
D03*
X440086Y822042D02*
D03*
X442372Y801468D02*
D03*
X420274Y829408D02*
D03*
X407320Y829154D02*
D03*
X421544Y871572D02*
D03*
X437546Y829154D02*
D03*
X356012Y890368D02*
D03*
X365156Y890876D02*
D03*
X414686Y876592D02*
D03*
X418496Y881986D02*
D03*
X412940Y807532D02*
D03*
X403256Y803500D02*
D03*
X400398Y834044D02*
D03*
X368966Y808834D02*
D03*
X378782Y829916D02*
D03*
X371670Y830170D02*
D03*
X393604Y837282D02*
D03*
X392080Y872842D02*
D03*
X390048Y854046D02*
D03*
X366680Y814930D02*
D03*
X563022Y795626D02*
D03*
X562514Y802444D02*
D03*
X627030Y781656D02*
D03*
X634650Y786736D02*
D03*
X651729Y787526D02*
D03*
X665384Y784770D02*
D03*
X376840Y873096D02*
D03*
X367442Y846426D02*
D03*
X371978Y838770D02*
D03*
X412400Y791816D02*
D03*
X344646Y773592D02*
D03*
X450500Y794102D02*
D03*
X360468Y780270D02*
D03*
X355190Y792638D02*
D03*
X369220Y801214D02*
D03*
X366782Y857704D02*
D03*
X463708Y893416D02*
D03*
X470058Y899766D02*
D03*
X635090Y846770D02*
D03*
X646940Y890020D02*
D03*
X661190Y837020D02*
D03*
X637941Y775769D02*
D03*
X662640Y828320D02*
D03*
X559440Y828020D02*
D03*
Y840020D02*
D03*
Y852020D02*
D03*
X547940Y840020D02*
D03*
X570440D02*
D03*
Y828020D02*
D03*
X547940D02*
D03*
X570440Y852020D02*
D03*
X547940D02*
D03*
X574190Y803520D02*
D03*
X527690Y840270D02*
D03*
X618440Y823270D02*
D03*
X611440Y825770D02*
D03*
X603440Y847520D02*
D03*
M02*
